<svg xmlns="http://www.w3.org/2000/svg" xmlns:xlink="http://www.w3.org/1999/xlink" width="137" height="137" viewBox="0 0 137 137">
  <defs>
    <filter id="Ret창ngulo_2816" x="0" y="0" width="137" height="137" filterUnits="userSpaceOnUse">
      <feOffset dy="10" input="SourceAlpha"/>
      <feGaussianBlur stdDeviation="10" result="blur"/>
      <feFlood flood-opacity="0.2"/>
      <feComposite operator="in" in2="blur"/>
      <feComposite in="SourceGraphic"/>
    </filter>
  </defs>
  <g id="Grupo_3850" data-name="Grupo 3850" transform="translate(29.913 19.549)">
    <g transform="matrix(1, 0, 0, 1, -29.91, -19.55)" filter="url(#Ret창ngulo_2816)">
      <rect id="Ret창ngulo_2816-2" data-name="Ret창ngulo 2816" width="77" height="77" rx="25" transform="translate(30 20)"/>
    </g>
    <path id="icons8_customer_support" d="M19.576,0C13.527,0,9.068,2.089,6.185,5.362A18.263,18.263,0,0,0,2,17.576a17.513,17.513,0,0,0,3.086,9.939,15.309,15.309,0,0,1,2.772,8.631v5.7H9.532v-5.7A17.029,17.029,0,0,0,6.5,26.625l-.052-.078a15.765,15.765,0,0,1-2.772-8.971A16.635,16.635,0,0,1,7.44,6.46,14.427,14.427,0,0,1,17.065,1.8v12.92a6.691,6.691,0,1,0,6.722,11.4l4.368,3.034a2.47,2.47,0,0,0-.209.968,2.511,2.511,0,1,0,2.511-2.511,2.488,2.488,0,0,0-1.177.314l-4.342-3.008a6.679,6.679,0,0,0-2.851-10.2V1.8c4.289.422,7.258,1.919,9.311,4.054,2.436,2.534,3.632,6.032,4.08,9.808l.026.183.078.131,3.949,6.774H39.5a.642.642,0,0,1-.262.942v.026L35.477,25.6v5.022a5.218,5.218,0,0,1-5.7,5.283H29.75l-2.589-.183-.889-.052v6.172h1.674V37.453l1.674.131h.026a6.939,6.939,0,0,0,7.506-6.957v-4l2.877-1.438h.026l.026-.026a2.366,2.366,0,0,0,.889-3.217v-.026l-3.871-6.7A18.108,18.108,0,0,0,32.6,4.708C29.825,1.821,25.6,0,19.576,0Zm0,1.674c.291,0,.556.016.837.026V14.28a6.722,6.722,0,0,0-1.674,0V1.7C19.013,1.69,19.291,1.674,19.576,1.674Zm0,14.228a5.022,5.022,0,1,1-5.022,5.022A5.01,5.01,0,0,1,19.576,15.9Zm0,1.674a3.348,3.348,0,1,0,3.348,3.348A3.358,3.358,0,0,0,19.576,17.576Zm0,1.674A1.674,1.674,0,1,1,17.9,20.923,1.661,1.661,0,0,1,19.576,19.249Zm10.88,10.043a.837.837,0,1,1-.837.837A.826.826,0,0,1,30.456,29.293Z" transform="translate(16.913 18.528)" fill="#fff"/>
  </g>
</svg>
