<svg xmlns="http://www.w3.org/2000/svg" xmlns:xlink="http://www.w3.org/1999/xlink" width="525" height="452" viewBox="0 0 525 452">
  <defs>
    <clipPath id="clip-path">
      <rect id="Retângulo_2848" data-name="Retângulo 2848" width="78" height="52" transform="translate(0.248 0.494)"/>
    </clipPath>
    <clipPath id="clip-path-2">
      <rect id="Retângulo_2851" data-name="Retângulo 2851" width="525" height="452" transform="translate(0.002 -0.32)"/>
    </clipPath>
    <linearGradient id="linear-gradient" x1="0.5" y1="-1.737" x2="0.5" y2="-2.817" gradientUnits="objectBoundingBox">
      <stop offset="0" stop-color="#ffe0c2"/>
      <stop offset="0.401" stop-color="#7aaefc"/>
      <stop offset="0.591" stop-color="#b8c1fc"/>
      <stop offset="1" stop-color="#d2d4d4"/>
    </linearGradient>
    <linearGradient id="linear-gradient-2" x1="0.5" y1="-5.681" x2="0.5" y2="-7.188" gradientUnits="objectBoundingBox">
      <stop offset="0" stop-color="#c0273c"/>
      <stop offset="0.401" stop-color="#47a6d3"/>
      <stop offset="0.501" stop-color="#a7a7ae"/>
      <stop offset="0.591" stop-color="#e89ac0"/>
      <stop offset="1" stop-color="#bfe7d1"/>
    </linearGradient>
    <linearGradient id="linear-gradient-4" x1="0.5" y1="-1.952" x2="0.5" y2="-3.253" xlink:href="#linear-gradient"/>
    <clipPath id="clip-path-3">
      <rect id="Retângulo_2852" data-name="Retângulo 2852" width="77.222" height="126.864"/>
    </clipPath>
  </defs>
  <g id="marginalia-delivering-a-message" transform="translate(-197.002 -30.18)">
    <g id="Grupo_3895" data-name="Grupo 3895" transform="translate(551.754 109.686)">
      <g id="Grupo_3894" data-name="Grupo 3894" transform="translate(0 0)">
        <g id="Grupo_3893" data-name="Grupo 3893" transform="translate(0 0)" clip-path="url(#clip-path)">
          <path id="Caminho_3364" data-name="Caminho 3364" d="M774.244,1651.164h59.164a6.055,6.055,0,0,0,6.09-6.019v-33.818a6.055,6.055,0,0,0-6.09-6.018H774.244a6.055,6.055,0,0,0-6.09,6.018v33.818A6.053,6.053,0,0,0,774.244,1651.164Z" transform="translate(-764.848 -1602.777)" fill="#fff"/>
          <path id="Caminho_3365" data-name="Caminho 3365" d="M807.785,1636.627l31.712-19.064a6.055,6.055,0,0,0-6.09-6.018H774.243a6.055,6.055,0,0,0-6.09,6.018l33.414,19.13A6.159,6.159,0,0,0,807.785,1636.627Z" transform="translate(-764.848 -1604.713)" fill="#c0273c"/>
          <g id="Grupo_3891" data-name="Grupo 3891" transform="translate(2.435 1.673)">
            <path id="Caminho_3366" data-name="Caminho 3366" d="M807.785,1630.392l31.712-19.064a6.055,6.055,0,0,0-6.09-6.018H774.243a6.055,6.055,0,0,0-6.09,6.018l33.414,19.13A6.159,6.159,0,0,0,807.785,1630.392Z" transform="translate(-767.283 -1604.45)" fill="#fff"/>
            <path id="Caminho_3367" data-name="Caminho 3367" d="M804.227,1631.741h0a7.031,7.031,0,0,1-3.489-.927l-33.848-19.378v-.5a6.928,6.928,0,0,1,6.961-6.878h59.164a6.928,6.928,0,0,1,6.96,6.878v.484l-32.131,19.315A6.991,6.991,0,0,1,804.227,1631.741Zm-35.573-21.28,32.957,18.869a5.36,5.36,0,0,0,5.33-.057l31.273-18.8a5.2,5.2,0,0,0-5.2-4.689H773.851A5.2,5.2,0,0,0,768.654,1610.462Z" transform="translate(-766.891 -1604.062)" fill="#c0273c"/>
          </g>
          <g id="Grupo_3892" data-name="Grupo 3892" transform="translate(2.435 1.673)">
            <path id="Caminho_3368" data-name="Caminho 3368" d="M833.015,1651.636H773.851a6.928,6.928,0,0,1-6.961-6.878v-33.818a6.928,6.928,0,0,1,6.961-6.878h59.164a6.928,6.928,0,0,1,6.96,6.878v33.818A6.928,6.928,0,0,1,833.015,1651.636Zm-59.164-45.852a5.2,5.2,0,0,0-5.22,5.159v33.818a5.2,5.2,0,0,0,5.22,5.159h59.164a5.2,5.2,0,0,0,5.22-5.159v-33.818a5.2,5.2,0,0,0-5.22-5.159Z" transform="translate(-766.891 -1604.062)" fill="#c0273c" stroke="#c0273c" stroke-width="1.254"/>
          </g>
        </g>
      </g>
    </g>
    <g id="Grupo_3898" data-name="Grupo 3898" transform="translate(197 30.5)">
      <g id="Grupo_3897" data-name="Grupo 3897" transform="translate(0 0)">
        <g id="Grupo_3896" data-name="Grupo 3896" clip-path="url(#clip-path-2)">
          <g id="Layer_2" data-name="Layer 2" transform="translate(0.728 -0.494)">
            <g id="Layer_1" data-name="Layer 1">
              <path id="Caminho_3369" data-name="Caminho 3369" d="M334.866,186.705l.347,1.681.289,1.681.578,3.363c.347,2.261.636,4.522.926,6.783s.52,4.522.751,6.784l.636,6.783c.81,9.044,1.273,18.091,1.619,27.133s.4,18.147.4,27.192c-.116,9.044-.289,18.146-.694,27.249l-.462,11.073-2.834,4.581q-8.588,13.914-17.577,27.539l-4.511,6.841-4.568,6.784c-3.007,4.522-6.188,8.986-9.31,13.508-6.3,8.928-12.781,17.856-19.431,26.611-3.354,4.348-6.708,8.755-10.234,13.045l-5.263,6.435c-1.792,2.145-3.585,4.29-5.436,6.377l-38.573-19.481,58.409-116.185-3.354,15.885-5.149-108.591Z" transform="translate(-68.788 -57.98)" fill="url(#linear-gradient)"/>
              <path id="Caminho_3370" data-name="Caminho 3370" d="M295.494,226.646l2.14,45.164,65.7,17.915L362.52,243Z" transform="translate(-91.757 -70.382)" fill="#2b2b2b"/>
              <path id="Caminho_3371" data-name="Caminho 3371" d="M282.618,539.635l-63.324-27.656a6.735,6.735,0,0,1-3.528-8.638l3.3-8.117,39.845,17.856,27.065,20.754a3.374,3.374,0,0,1-3.354,5.8Z" transform="translate(-66.852 -153.781)" fill="#2b2b2b"/>
              <path id="Caminho_3372" data-name="Caminho 3372" d="M247.18,516.1l-17.7-7.711,2.313-5.334,14.458,6.319,52.626-44,3.7,4.406Z" transform="translate(-71.26 -144.512)" fill="#f9d5ff"/>
              <path id="Caminho_3373" data-name="Caminho 3373" d="M553.786,558.032c-59.8,0-108.49-48.817-108.49-108.765S493.99,340.5,553.786,340.5s108.49,48.818,108.49,108.765S613.583,558.032,553.786,558.032Zm0-211.732c-56.616,0-102.708,46.207-102.708,102.968s46.09,102.967,102.708,102.967,102.707-46.207,102.707-102.967S610.4,346.3,553.786,346.3Z" transform="translate(-138.274 -105.737)" fill="#2b2b2b"/>
              <path id="Caminho_3374" data-name="Caminho 3374" d="M108.49,558.032C48.693,558.032,0,509.215,0,449.267S48.693,340.5,108.49,340.5,216.98,389.32,216.98,449.267,168.287,558.032,108.49,558.032Zm0-211.732C51.871,346.3,5.781,392.507,5.781,449.267s46.09,102.967,102.707,102.967S211.2,506.027,211.2,449.267,165.106,346.3,108.49,346.3Z" transform="translate(0 -105.737)" fill="#2b2b2b"/>
              <path id="Caminho_3375" data-name="Caminho 3375" d="M324.966,419.142a3.363,3.363,0,0,1-1.273-.291,2.9,2.9,0,0,1-1.619-2.2L307.558,307.474a2.867,2.867,0,0,1,.694-2.319,2.809,2.809,0,0,1,2.2-.986H454.736a2.924,2.924,0,0,1,2.661,1.739l10.756,25.046A2.95,2.95,0,0,1,467,334.608L326.469,418.736a2.789,2.789,0,0,1-1.5.406Zm-11.22-109.174,13.475,101.518L461.8,330.9l-9.022-20.989H313.746Z" transform="translate(-95.494 -94.455)" fill="#f9d5ff"/>
              <ellipse id="Elipse_806" data-name="Elipse 806" cx="15.615" cy="15.654" rx="15.615" ry="15.654" transform="translate(399.898 327.876)" fill="#2b2b2b"/>
              <path id="Caminho_3376" data-name="Caminho 3376" d="M594.312,508.448A18.553,18.553,0,1,1,612.818,489.9,18.529,18.529,0,0,1,594.312,508.448Zm0-31.307A12.755,12.755,0,1,0,607.035,489.9,12.739,12.739,0,0,0,594.312,477.141Z" transform="translate(-178.8 -146.366)" fill="#2b2b2b"/>
              <ellipse id="Elipse_807" data-name="Elipse 807" cx="15.615" cy="15.654" rx="15.615" ry="15.654" transform="translate(92.875 327.876)" fill="#2b2b2b"/>
              <path id="Caminho_3377" data-name="Caminho 3377" d="M149.016,508.448A18.553,18.553,0,1,1,167.522,489.9,18.529,18.529,0,0,1,149.016,508.448Zm0-31.307A12.755,12.755,0,1,0,161.739,489.9,12.739,12.739,0,0,0,149.016,477.141Z" transform="translate(-40.526 -146.366)" fill="#2b2b2b"/>
              <path id="Caminho_3378" data-name="Caminho 3378" d="M564.63,403.191a2.89,2.89,0,0,1-2.656-1.739L486.5,225.9l-4.28-9.508a23.953,23.953,0,1,1,43.9-19.188l6.186,14.612a2.9,2.9,0,1,1-5.321,2.319l-6.13-14.724a18.187,18.187,0,1,0-33.311,14.61l4.28,9.565,75.47,175.607a2.941,2.941,0,0,1-1.5,3.827A4,4,0,0,1,564.63,403.191Z" transform="translate(-149.118 -56.762)" fill="#f9d5ff"/>
              <path id="Caminho_3379" data-name="Caminho 3379" d="M156.05,440.872a2.933,2.933,0,0,1-2.255-4.754L260.26,305.206a2.986,2.986,0,0,1,3.008-.986,2.936,2.936,0,0,1,2.082,2.436l14.515,109.17a2.862,2.862,0,0,1-2.371,3.247L156.512,440.814a1.123,1.123,0,0,1-.462.058Zm104.5-126.8L163.221,433.745l110.573-19.89Z" transform="translate(-47.56 -94.444)" fill="#f9d5ff"/>
              <ellipse id="Elipse_808" data-name="Elipse 808" cx="27.643" cy="27.713" rx="27.643" ry="27.713" transform="translate(201.829 295.351)" fill="#fff"/>
              <path id="Caminho_3380" data-name="Caminho 3380" d="M319.067,485.395A30.612,30.612,0,1,1,349.6,454.783,30.573,30.573,0,0,1,319.067,485.395Zm0-55.426a24.814,24.814,0,1,0,24.751,24.814,24.783,24.783,0,0,0-24.751-24.814Z" transform="translate(-89.595 -131.718)" fill="#f9d5ff"/>
              <rect id="Retângulo_2849" data-name="Retângulo 2849" width="33.86" height="5.783" transform="matrix(0.005, -1, 1, 0.005, 212.02, 214.427)" fill="#f9d5ff"/>
              <path id="Caminho_3381" data-name="Caminho 3381" d="M325.06,262.9H325l-58-.7a5.8,5.8,0,0,1,.116-11.6l58,.7a5.8,5.8,0,0,1-.058,11.595Z" transform="translate(-81.13 -77.824)" fill="#f9d5ff"/>
              <path id="Caminho_3382" data-name="Caminho 3382" d="M494.614,174.842l12.2-3.362a16.152,16.152,0,0,1,11.451,30.032L507.8,206.788" transform="translate(-153.588 -53.075)" fill="#fdc068"/>
              <path id="Caminho_3383" data-name="Caminho 3383" d="M462.8,187.025l-46.265,23.191a19.84,19.84,0,0,1-25.793-7.362L389.64,201l-36.491-59.775a22.262,22.262,0,1,1,37.937-23.306l36.549,59.774-26.951-9.218,48.981-13.392" transform="translate(-108.641 -33.312)" fill="url(#linear-gradient-2)"/>
              <path id="Caminho_3384" data-name="Caminho 3384" d="M358.984,180.817c7.055-21.452-7.981-25.336,2.429-37.859s10.583-34.9-5.841-40.351c-12.665-4.174-13.358-4.986-18.737-6.784-16.887-5.565-41.349,5.392-41.872,23.249,0,0-10.468,19.306-15.325,34.032Z" transform="translate(-86.833 -29.307)" fill="url(#linear-gradient-2)"/>
              <path id="Caminho_3385" data-name="Caminho 3385" d="M397.525,161.433a.928.928,0,0,1-.637-.29.9.9,0,0,1,.058-1.217,18.534,18.534,0,0,0,6.072-12.871.868.868,0,0,1,1.735,0A20.055,20.055,0,0,1,398.1,161.2.741.741,0,0,1,397.525,161.433Z" transform="translate(-123.176 -45.406)" fill="#2b2b2b"/>
              <path id="Caminho_3386" data-name="Caminho 3386" d="M279.258,179.557c-3.759,11.306,2.487,32.177,22.148,38.9l16.019,4.871c17.87,6.088,37.59-5.16,41.638-17.336Z" transform="translate(-86.393 -55.76)" fill="#4c7de0"/>
              <path id="Caminho_3387" data-name="Caminho 3387" d="M437.643,42.326l1.908,13.392a8.686,8.686,0,0,1-8.62,9.914H420.464Z" transform="translate(-130.563 -13.147)" fill="#2b2b2b"/>
              <path id="SVGID-i3" d="M394.556,64.722,380.041,59.04a14.7,14.7,0,0,1-8.328-18.958l8.559-21.973A23.339,23.339,0,0,1,410.517,4.774h0a23.436,23.436,0,0,1,13.3,30.321l-7.806,20.118A16.6,16.6,0,0,1,394.556,64.722Z" transform="translate(-115.119 -0.989)" fill="#fdc068"/>
              <path id="Caminho_3388" data-name="Caminho 3388" d="M444.142,55.164l-1.905,4.871a2.586,2.586,0,0,1-1.215-2.261,2.7,2.7,0,0,1,2.661-2.667A1.27,1.27,0,0,1,444.142,55.164Z" transform="translate(-136.946 -17.115)" fill="#2b2b2b"/>
              <path id="Caminho_3389" data-name="Caminho 3389" d="M384.57,117.938l13.764-4.291s-6.535-9.508-13.764-9.1Z" transform="translate(-119.417 -32.464)"/>
              <path id="Caminho_3390" data-name="Caminho 3390" d="M367.484,97.314,351.523,83.167l18.1-40.758,23.19,9.044L378.645,94.3a6.932,6.932,0,0,1-11.161,3.015Z" transform="translate(-109.155 -13.173)" fill="#fdc068"/>
              <path id="Caminho_3391" data-name="Caminho 3391" d="M432.037,62.348a.8.8,0,0,1-.751-.638.777.777,0,0,1,.636-.87l2.429-.406a1.163,1.163,0,0,0,.637-.522.982.982,0,0,0,.058-.811l-1.677-4.871a.769.769,0,0,1,1.446-.522l1.676,4.87a2.6,2.6,0,0,1-.116,1.971,2.921,2.921,0,0,1-1.562,1.331H434.7l-2.487.406C432.095,62.348,432.095,62.348,432.037,62.348Z" transform="translate(-133.921 -16.53)" fill="#2b2b2b"/>
              <path id="Caminho_3392" data-name="Caminho 3392" d="M395.59,88.61l-9.426-3.653,6.3,13.219Z" transform="translate(-119.912 -26.385)" fill="#2b2b2b"/>
              <ellipse id="Elipse_809" data-name="Elipse 809" cx="2.66" cy="2.667" rx="2.66" ry="2.667" transform="translate(289.905 32.541)" fill="#2b2b2b"/>
              <path id="Caminho_3393" data-name="Caminho 3393" d="M279.853,167.028l31.345.406s11.334,3.537,13.593,4.116c0,0,76.8,25.688,85.358,29.221l5.147,2.145a28.522,28.522,0,0,1,15.729,36.177c-3.758,10.2-7.633,20.408-11.681,30.5l-6.188,15.194c-2.082,5.044-15.383,35.134-20.183,45.048-2.429,4.986-4.858,9.914-7.4,14.842l-3.875,7.362c-1.328,2.435-2.66,4.87-4.048,7.3l-41.7-11.363,34.06-125.521,21.17,38.787-98.2-30.9a33.385,33.385,0,0,1-20.82-44.411Z" transform="translate(-83.749 -51.87)" fill="url(#linear-gradient-4)"/>
              <path id="Caminho_3394" data-name="Caminho 3394" d="M425.417,246.63l53.434-10.957a28.716,28.716,0,0,0-9.426-11.885Z" transform="translate(-132.101 -69.495)" fill="#2b2b2b"/>
              <path id="Caminho_3395" data-name="Caminho 3395" d="M438.1,454.985l-68.24-10.495a6.629,6.629,0,0,1-5.61-7.42l1.1-8.7,43.084,7.074,31.459,13.1A3.362,3.362,0,0,1,438.1,454.985Z" transform="translate(-113.088 -133.023)" fill="#2b2b2b"/>
              <path id="Caminho_3396" data-name="Caminho 3396" d="M318.044,140.372h0a23.711,23.711,0,0,0,.695,28.7L361.07,221.6a13.628,13.628,0,0,0,13.88,4.638l21.86-8.117-66.563-64.586Z" transform="translate(-97.363 -43.593)" fill="#2b2b2b"/>
              <path id="Caminho_3397" data-name="Caminho 3397" d="M498.809,170.11l13.937-3.653a16.11,16.11,0,0,1,10.294,30.438l-10.526,4.464" transform="translate(-154.89 -51.53)" fill="#fdc068"/>
              <path id="Caminho_3398" data-name="Caminho 3398" d="M451.027,180.207l-68.644,29.1a20.186,20.186,0,0,1-23.826-6.265l-.925-1.217-52.395-68.066a22.287,22.287,0,1,1,35.279-27.245l52.395,68.065L368.1,167.1l69.223-18.091" transform="translate(-93.345 -30.378)" fill="#c0273c"/>
              <path id="Caminho_3399" data-name="Caminho 3399" d="M429.707,30.17l.52-8.349a17.585,17.585,0,0,0-11.681-17.74L409.81,1.007A17.371,17.371,0,0,0,392.75,4.14h0a17.863,17.863,0,0,0-4.8,6.377l-1.8,4.174Z" transform="translate(-119.909 -0.006)" fill="#f9d5ff"/>
              <path id="Caminho_3400" data-name="Caminho 3400" d="M384.57,22.772l44.122,15.48,7.343-2.552a7.235,7.235,0,0,0,.521-13.45h0a7.17,7.17,0,0,0-5.781,0L416.724,28.4l-30.076-10.2Z" transform="translate(-119.417 -5.653)" fill="#4c7de0"/>
              <path id="Caminho_3401" data-name="Caminho 3401" d="M397.972,31.476,382.012,45.565a9.465,9.465,0,0,1-8.791,2.029h0a9.508,9.508,0,0,1-2.833-16.987l8.5-5.856Z" transform="translate(-113.735 -7.69)" fill="#2b2b2b"/>
              <path id="Caminho_3402" data-name="Caminho 3402" d="M422.44,61.843l-6.13-2.435a13.327,13.327,0,0,0-10.641.406l-5.147,2.494-7.635-18.553-8.906,9.682,1.446,18.668,14.748,5.623a14.83,14.83,0,0,0,18.968-8.175Z" transform="translate(-119.234 -13.591)" fill="#2b2b2b"/>
              <path id="Caminho_3403" data-name="Caminho 3403" d="M428.732,74.423s-5.493,6.377-8.1-2.667" transform="translate(-130.616 -22.286)" fill="#fff"/>
              <path id="Caminho_3404" data-name="Caminho 3404" d="M403.123,286.617a.35.35,0,0,1-.234-.058.861.861,0,0,1-.636-1.043l2.486-9.219a.863.863,0,1,1,1.677.406l-2.487,9.219a.765.765,0,0,1-.807.7Z" transform="translate(-124.9 -85.594)" fill="#2b2b2b"/>
              <path id="Caminho_3405" data-name="Caminho 3405" d="M414.091,183.75a.9.9,0,0,1-.694-.348l-36.2-47.02a.868.868,0,1,1,1.387-1.044l36.2,47.019a.849.849,0,0,1-.173,1.218.931.931,0,0,1-.522.175Z" transform="translate(-117.073 -41.921)" fill="#2b2b2b"/>
              <path id="Caminho_3406" data-name="Caminho 3406" d="M298.374,360.313a.891.891,0,0,1-.867-.87v-19.6a.868.868,0,1,1,1.735,0v19.6A.892.892,0,0,1,298.374,360.313Z" transform="translate(-92.382 -105.255)" fill="#2b2b2b"/>
              <path id="Caminho_3407" data-name="Caminho 3407" d="M333.327,465l-1.851-5.45L363.515,448.3l29.841,5.624-1.041,5.681-28.337-5.275Z" transform="translate(-102.93 -139.211)" fill="#f9d5ff"/>
              <path id="Caminho_3408" data-name="Caminho 3408" d="M377.892,367.165a.347.347,0,0,1-.234-.058.79.79,0,0,1-.578-1.043l9.773-35.424a.842.842,0,1,1,1.619.464L378.7,366.528A.764.764,0,0,1,377.892,367.165Z" transform="translate(-117.076 -102.484)" fill="#2b2b2b"/>
              <rect id="Retângulo_2850" data-name="Retângulo 2850" width="11.567" height="31.31" transform="translate(352.381 211.21) rotate(-23.24)" fill="#f9d5ff"/>
            </g>
          </g>
        </g>
      </g>
    </g>
    <g id="Grupo_3901" data-name="Grupo 3901" transform="matrix(-0.77, -0.637, 0.637, -0.77, 360.791, 208.978)">
      <g id="Grupo_3900" data-name="Grupo 3900" transform="translate(0 0)">
        <g id="Grupo_3899" data-name="Grupo 3899" clip-path="url(#clip-path-3)">
          <g id="Layer_2-2" data-name="Layer 2" transform="translate(0.007 -0.019)">
            <g id="Layer_1-2" data-name="Layer 1" transform="translate(0 0)">
              <path id="Caminho_3409" data-name="Caminho 3409" d="M36.958.373,7.469,8.58A10.133,10.133,0,0,0,.4,21.19l27.3,98.182a10.077,10.077,0,0,0,12.552,7.1l29.49-8.2a10.135,10.135,0,0,0,7.068-12.61L49.509,7.484A10.21,10.21,0,0,0,36.958.373Z" fill="#de6381"/>
              <ellipse id="Elipse_810" data-name="Elipse 810" cx="12.551" cy="9.304" rx="12.551" ry="9.304" transform="translate(45.028 97.451) rotate(-105.491)" fill="#c74d7d"/>
            </g>
          </g>
        </g>
      </g>
    </g>
  </g>
</svg>
