<svg xmlns="http://www.w3.org/2000/svg" xmlns:xlink="http://www.w3.org/1999/xlink" width="824.997" height="556.374" viewBox="0 0 824.997 556.374">
  <defs>
    <linearGradient id="linear-gradient" x1="0.5" y1="-6.629" x2="0.5" y2="-8.648" gradientUnits="objectBoundingBox">
      <stop offset="0" stop-color="#ea979a"/>
      <stop offset="0.409" stop-color="#f2d38b"/>
      <stop offset="0.499" stop-color="#7e9dae"/>
      <stop offset="0.599" stop-color="#90979d"/>
      <stop offset="1" stop-color="#7ebddb"/>
    </linearGradient>
    <linearGradient id="linear-gradient-2" x1="0.5" y1="-6.011" x2="0.5" y2="-7.863" xlink:href="#linear-gradient"/>
    <linearGradient id="linear-gradient-3" x1="0.5" y1="-6.745" x2="0.5" y2="-8.822" xlink:href="#linear-gradient"/>
  </defs>
  <g id="marginalia-financial-report" transform="translate(-110 -46)">
    <g id="Grupo_3852" data-name="Grupo 3852" transform="translate(663.766 269.418)">
      <g id="Grupo_3851" data-name="Grupo 3851" transform="translate(0 0)">
        <g id="Layer_2" data-name="Layer 2">
          <g id="Layer_1" data-name="Layer 1">
            <rect id="Retângulo_2832" data-name="Retângulo 2832" width="5.295" height="171.043" transform="translate(106.79 155.254)" fill="#f9d5ff"/>
            <path id="Caminho_3194" data-name="Caminho 3194" d="M188.1,374.572H41.658l16.36-3.445a264.176,264.176,0,0,1,54.746-5.723H117a264.3,264.3,0,0,1,54.8,5.735Z" transform="translate(-5.443 -47.745)" fill="#f9d5ff"/>
            <path id="Caminho_3195" data-name="Caminho 3195" d="M187.7,376.824H41.258a2.646,2.646,0,0,1-2.647-2.385,2.618,2.618,0,0,1,2.064-2.861l16.36-3.445a268.515,268.515,0,0,1,55.275-5.776h4.235a268.148,268.148,0,0,1,55.275,5.776l16.36,3.445a2.619,2.619,0,0,1,2.064,2.861,2.477,2.477,0,0,1-2.541,2.385Zm-120.238-5.3h93.978a264.788,264.788,0,0,0-44.9-3.868H112.31a265.092,265.092,0,0,0-44.844,3.868Z" transform="translate(-5.043 -47.347)" fill="#f9d5ff"/>
            <path id="Caminho_3196" data-name="Caminho 3196" d="M207.431,171.122,68.825,155.65,110.916,26.625A34.2,34.2,0,0,1,143.369,3.048h71.37a34.155,34.155,0,0,1,32.455,44.774Z" transform="translate(-8.993 -0.397)" fill="#fff"/>
            <path id="Caminho_3197" data-name="Caminho 3197" d="M207.035,173.378h-.316L68.113,157.906a2.6,2.6,0,0,1-1.906-1.22,2.648,2.648,0,0,1-.265-2.278L107.975,25.381A36.75,36.75,0,0,1,142.973,0h71.37A36.264,36.264,0,0,1,244.1,15.207a36.511,36.511,0,0,1,5.189,33.065l-39.766,123.3a2.625,2.625,0,0,1-2.489,1.806Zm-135.063-20.4,133.21,14.889L244.256,46.629A31.483,31.483,0,0,0,214.342,5.352H142.973A31.388,31.388,0,0,0,113.06,27.13Z" transform="translate(-8.597 0.001)" fill="#f9d5ff"/>
            <path id="Caminho_3198" data-name="Caminho 3198" d="M15.064,202.645H187.347a12.09,12.09,0,0,0,11.545-8.584h0a12.022,12.022,0,0,0-11.545-15.472H15.064A12.051,12.051,0,0,0,3.045,190.614h0a11.98,11.98,0,0,0,12.019,12.031Z" transform="translate(-0.398 -23.335)" fill="#fff"/>
            <path id="Caminho_3199" data-name="Caminho 3199" d="M186.949,204.9H14.666a14.677,14.677,0,0,1,0-29.353l172.283,0a14.675,14.675,0,1,1,0,29.351ZM14.666,180.84a9.379,9.379,0,0,0,0,18.758H186.949a9.379,9.379,0,1,0,0-18.758Z" transform="translate(0 -22.937)" fill="#f9d5ff"/>
          </g>
        </g>
      </g>
    </g>
    <g id="Grupo_3854" data-name="Grupo 3854" transform="translate(110 46)">
      <g id="Grupo_3853" data-name="Grupo 3853">
        <g id="Layer_2-2" data-name="Layer 2">
          <g id="Layer_1-2" data-name="Layer 1">
            <path id="Caminho_3200" data-name="Caminho 3200" d="M569.576,557.31H29.9A27.992,27.992,0,0,1,1.921,529.3V31.845A24.671,24.671,0,0,1,26.578,7.161H572.895a24.671,24.671,0,0,1,24.657,24.684V529.3A27.992,27.992,0,0,1,569.576,557.31Z" transform="translate(-0.251 -0.936)" fill="none"/>
            <path id="Caminho_3201" data-name="Caminho 3201" d="M684.076,84.62h-9.452a2.058,2.058,0,0,1,0-4.114h9.452a2.058,2.058,0,1,1,0,4.114Z" transform="translate(-87.888 -10.519)" fill="#b679ea"/>
            <path id="Caminho_3202" data-name="Caminho 3202" d="M650.688,84.62h-9.452a2.058,2.058,0,1,1,0-4.114h9.452a2.036,2.036,0,0,1,2.055,2.058A2.089,2.089,0,0,1,650.688,84.62Z" transform="translate(-83.513 -10.519)" fill="#b679ea"/>
            <path id="Caminho_3203" data-name="Caminho 3203" d="M617.233,84.62h-9.452a2.058,2.058,0,0,1,0-4.114h9.452a2.058,2.058,0,1,1,0,4.114Z" transform="translate(-79.154 -10.519)" fill="#b679ea"/>
            <path id="Caminho_3204" data-name="Caminho 3204" d="M583.845,84.62h-9.452a2.058,2.058,0,1,1,0-4.114h9.452a2.036,2.036,0,0,1,2.055,2.058A2.089,2.089,0,0,1,583.845,84.62Z" transform="translate(-74.779 -10.519)" fill="#b679ea"/>
            <path id="Caminho_3205" data-name="Caminho 3205" d="M550.391,84.62h-9.448a2.058,2.058,0,0,1,0-4.114h9.452a2.058,2.058,0,1,1,0,4.114Z" transform="translate(-70.421 -10.519)" fill="#b679ea"/>
            <path id="Caminho_3206" data-name="Caminho 3206" d="M517.017,84.62h-9.452a2.058,2.058,0,0,1,0-4.114h9.452a2.036,2.036,0,0,1,2.055,2.058,2.089,2.089,0,0,1-2.055,2.057Z" transform="translate(-66.059 -10.519)" fill="#b679ea"/>
            <path id="Caminho_3207" data-name="Caminho 3207" d="M483.554,84.62H474.1a2.058,2.058,0,0,1,0-4.114h9.452a2.058,2.058,0,1,1,0,4.114Z" transform="translate(-61.687 -10.519)" fill="#b679ea"/>
            <path id="Caminho_3208" data-name="Caminho 3208" d="M450.175,84.62h-9.452a2.058,2.058,0,0,1,0-4.114h9.452a2.036,2.036,0,0,1,2.055,2.058,2.089,2.089,0,0,1-2.055,2.057Z" transform="translate(-57.325 -10.519)" fill="#b679ea"/>
            <path id="Caminho_3209" data-name="Caminho 3209" d="M416.706,84.62h-9.452a2.058,2.058,0,0,1,0-4.114h9.452a2.058,2.058,0,1,1,0,4.114Z" transform="translate(-52.952 -10.519)" fill="#b679ea"/>
            <path id="Caminho_3210" data-name="Caminho 3210" d="M383.333,84.62h-9.452a2.058,2.058,0,0,1,0-4.114h9.452a2.036,2.036,0,0,1,2.055,2.058,2.089,2.089,0,0,1-2.055,2.057Z" transform="translate(-48.591 -10.519)" fill="#b679ea"/>
            <path id="Caminho_3211" data-name="Caminho 3211" d="M349.864,84.62h-9.452a2.058,2.058,0,0,1,0-4.114h9.452a2.058,2.058,0,1,1,0,4.114Z" transform="translate(-44.218 -10.519)" fill="#b679ea"/>
            <path id="Caminho_3212" data-name="Caminho 3212" d="M316.49,84.62h-9.452a2.058,2.058,0,0,1,0-4.114h9.452a2.036,2.036,0,0,1,2.055,2.058,2.089,2.089,0,0,1-2.055,2.057Z" transform="translate(-39.857 -10.519)" fill="#b679ea"/>
            <path id="Caminho_3213" data-name="Caminho 3213" d="M283.022,84.62H273.57a2.058,2.058,0,0,1,0-4.114h9.452a2.058,2.058,0,1,1,0,4.114Z" transform="translate(-35.484 -10.519)" fill="#b679ea"/>
            <path id="Caminho_3214" data-name="Caminho 3214" d="M249.648,84.62H240.2a2.058,2.058,0,0,1,0-4.114h9.452a2.036,2.036,0,0,1,2.055,2.058,2.089,2.089,0,0,1-2.055,2.057Z" transform="translate(-31.123 -10.519)" fill="#b679ea"/>
            <path id="Caminho_3215" data-name="Caminho 3215" d="M216.179,84.62h-9.452a2.058,2.058,0,0,1,0-4.114h9.452a2.058,2.058,0,1,1,0,4.114Z" transform="translate(-26.75 -10.519)" fill="#b679ea"/>
            <path id="Caminho_3216" data-name="Caminho 3216" d="M182.806,84.62h-9.452a2.058,2.058,0,0,1,0-4.114h9.452a2.036,2.036,0,0,1,2.055,2.058,2.089,2.089,0,0,1-2.055,2.057Z" transform="translate(-22.389 -10.519)" fill="#b679ea"/>
            <path id="Caminho_3217" data-name="Caminho 3217" d="M149.337,84.62h-9.452a2.058,2.058,0,0,1,0-4.114h9.452a2.058,2.058,0,1,1,0,4.114Z" transform="translate(-18.016 -10.519)" fill="#b679ea"/>
            <path id="Caminho_3218" data-name="Caminho 3218" d="M115.963,84.62h-9.451a2.058,2.058,0,0,1,0-4.114h9.452a2.036,2.036,0,0,1,2.055,2.058,2.089,2.089,0,0,1-2.056,2.057Z" transform="translate(-13.655 -10.519)" fill="#b679ea"/>
            <path id="Caminho_3219" data-name="Caminho 3219" d="M82.5,84.62H73.043a2.058,2.058,0,0,1,0-4.114H82.5a2.058,2.058,0,0,1,0,4.114Z" transform="translate(-9.282 -10.519)" fill="#b679ea"/>
            <path id="Caminho_3220" data-name="Caminho 3220" d="M49.123,84.62H39.669a2.058,2.058,0,0,1,0-4.114h9.454a2.036,2.036,0,0,1,2.055,2.058,2.089,2.089,0,0,1-2.055,2.057Z" transform="translate(-4.921 -10.519)" fill="#b679ea"/>
            <path id="Caminho_3221" data-name="Caminho 3221" d="M15.653,84.62H6.2a2.058,2.058,0,0,1,0-4.114h9.453a2.058,2.058,0,0,1,0,4.114Z" transform="translate(-0.548 -10.519)" fill="#b679ea"/>
            <path id="Caminho_3222" data-name="Caminho 3222" d="M46.23,59.595h0a19.03,19.03,0,0,1-3.786-.576,2.085,2.085,0,0,1,1.069-4.032,10.4,10.4,0,0,0,2.795.411,2.1,2.1,0,0,1-.082,4.2Zm7.891-1.971a2.061,2.061,0,0,1-1.808-.986,2.031,2.031,0,0,1,.739-2.8,11.441,11.441,0,0,0,2.219-1.729,2.036,2.036,0,0,1,2.795,2.963,15.507,15.507,0,0,1-2.958,2.216,1.433,1.433,0,0,1-.986.334Zm-18-2.8a2.245,2.245,0,0,1-1.559-.659,20.636,20.636,0,0,1-2.219-3.044,2.06,2.06,0,1,1,3.616-1.975,14.77,14.77,0,0,0,1.643,2.3,1.993,1.993,0,0,1-.164,2.88,1.87,1.87,0,0,1-1.318.494Zm24.74-6.172a1.04,1.04,0,0,1-.493-.082,2.006,2.006,0,0,1-1.48-2.468,15.164,15.164,0,0,0,.411-2.8,2.055,2.055,0,1,1,4.11,0,14.3,14.3,0,0,1-.493,3.7,2.251,2.251,0,0,1-2.054,1.645Zm-28.52-4.36h-.082a2.147,2.147,0,0,1-1.973-2.14,14.63,14.63,0,0,1,.658-3.7A2.055,2.055,0,1,1,34.887,39.6a15.358,15.358,0,0,0-.493,2.8,2.126,2.126,0,0,1-2.054,1.893Zm26.794-6.747a1.931,1.931,0,0,1-1.726-.988,11.45,11.45,0,0,0-1.727-2.221,2.035,2.035,0,1,1,2.877-2.88,15.959,15.959,0,0,1,2.3,2.962,2.008,2.008,0,0,1-.658,2.8A1.645,1.645,0,0,1,59.134,37.544ZM37.271,34.17a2.023,2.023,0,0,1-1.559-.74,2.068,2.068,0,0,1,.165-2.88,15.588,15.588,0,0,1,3.041-2.139,2.062,2.062,0,0,1,1.973,3.62,11.379,11.379,0,0,0-2.3,1.56,1.635,1.635,0,0,1-1.318.578Zm12.822-3.209a1.038,1.038,0,0,1-.493-.082,10.834,10.834,0,0,0-2.795-.334,2.058,2.058,0,1,1,0-4.114,18.24,18.24,0,0,1,3.7.411,2.125,2.125,0,0,1,1.559,2.469,2,2,0,0,1-1.97,1.651Z" transform="translate(-3.957 -3.453)" fill="#b679ea"/>
            <path id="Caminho_3223" data-name="Caminho 3223" d="M103.05,59.6h0a19.006,19.006,0,0,1-3.78-.576,2.085,2.085,0,0,1,1.068-4.032,10.4,10.4,0,0,0,2.795.411,2.1,2.1,0,0,1-.082,4.2Zm7.891-1.971a2.063,2.063,0,0,1-1.808-.986,2.031,2.031,0,0,1,.739-2.8,11.441,11.441,0,0,0,2.219-1.729,2.036,2.036,0,0,1,2.795,2.963,15.507,15.507,0,0,1-2.958,2.216,1.433,1.433,0,0,1-.986.334Zm-18-2.8a2.246,2.246,0,0,1-1.559-.659,20.637,20.637,0,0,1-2.219-3.044,2.06,2.06,0,1,1,3.616-1.975,14.771,14.771,0,0,0,1.643,2.3,1.993,1.993,0,0,1-.164,2.88,1.869,1.869,0,0,1-1.318.494Zm24.739-6.172a1.04,1.04,0,0,1-.493-.082,2.006,2.006,0,0,1-1.48-2.468,15.164,15.164,0,0,0,.411-2.8,2.055,2.055,0,1,1,4.11,0,14.351,14.351,0,0,1-.492,3.7,2.253,2.253,0,0,1-2.055,1.645Zm-28.52-4.36h-.082a2.148,2.148,0,0,1-1.973-2.14,14.629,14.629,0,0,1,.656-3.7A2.055,2.055,0,1,1,91.706,39.6a15.359,15.359,0,0,0-.493,2.8,2.125,2.125,0,0,1-2.052,1.889Zm26.794-6.747a1.931,1.931,0,0,1-1.726-.988,11.449,11.449,0,0,0-1.727-2.221,2.035,2.035,0,1,1,2.877-2.88,15.959,15.959,0,0,1,2.3,2.962,2.008,2.008,0,0,1-.658,2.8,1.645,1.645,0,0,1-1.068.33ZM94.092,34.17a2.024,2.024,0,0,1-1.559-.74,2.068,2.068,0,0,1,.165-2.88,15.588,15.588,0,0,1,3.041-2.139,2.062,2.062,0,0,1,1.973,3.62,11.379,11.379,0,0,0-2.3,1.56,1.635,1.635,0,0,1-1.318.578Zm12.82-3.209a1.04,1.04,0,0,1-.493-.082,10.834,10.834,0,0,0-2.795-.334,2.058,2.058,0,0,1,0-4.114,18.24,18.24,0,0,1,3.7.411,2.123,2.123,0,0,1,1.559,2.469A2,2,0,0,1,106.911,30.961Z" transform="translate(-11.382 -3.454)" fill="#b679ea"/>
            <path id="Caminho_3224" data-name="Caminho 3224" d="M159.875,59.6h0a19.007,19.007,0,0,1-3.78-.576,2.085,2.085,0,0,1,1.068-4.032,10.4,10.4,0,0,0,2.795.411,2.1,2.1,0,0,1-.082,4.2Zm7.891-1.975a2.063,2.063,0,0,1-1.808-.986,2.032,2.032,0,0,1,.739-2.8,11.448,11.448,0,0,0,2.22-1.729,2.036,2.036,0,1,1,2.794,2.963,15.478,15.478,0,0,1-2.962,2.22,1.433,1.433,0,0,1-.986.334Zm-18-2.8a2.246,2.246,0,0,1-1.559-.659,20.716,20.716,0,0,1-2.219-3.044,2.06,2.06,0,1,1,3.616-1.975,14.771,14.771,0,0,0,1.643,2.3,1.993,1.993,0,0,1-.164,2.88,1.866,1.866,0,0,1-1.322.494ZM174.5,48.652a1.042,1.042,0,0,1-.493-.082,2.006,2.006,0,0,1-1.479-2.468,15.356,15.356,0,0,0,.411-2.8,2.055,2.055,0,1,1,4.11,0,14.352,14.352,0,0,1-.493,3.7,2.253,2.253,0,0,1-2.059,1.645Zm-28.52-4.36H145.9a2.147,2.147,0,0,1-1.972-2.14,14.578,14.578,0,0,1,.657-3.7,2.055,2.055,0,1,1,3.945,1.151,15.264,15.264,0,0,0-.492,2.8,2.126,2.126,0,0,1-2.059,1.893Zm26.794-6.747a1.931,1.931,0,0,1-1.726-.988,11.489,11.489,0,0,0-1.726-2.221,2.035,2.035,0,1,1,2.876-2.88,15.913,15.913,0,0,1,2.3,2.962,2.008,2.008,0,0,1-.657,2.8,1.651,1.651,0,0,1-1.072.33ZM150.916,34.17a2.021,2.021,0,0,1-1.559-.74,2.067,2.067,0,0,1,.164-2.88,15.565,15.565,0,0,1,3.042-2.139,2.061,2.061,0,0,1,1.972,3.621,11.378,11.378,0,0,0-2.3,1.56,1.635,1.635,0,0,1-1.32.578Zm12.822-3.209a1.04,1.04,0,0,1-.493-.082,10.834,10.834,0,0,0-2.795-.334,2.058,2.058,0,0,1,0-4.114,18.226,18.226,0,0,1,3.7.411,2.126,2.126,0,0,1,1.559,2.469,2,2,0,0,1-1.973,1.651Z" transform="translate(-18.807 -3.454)" fill="#b679ea"/>
            <path id="Caminho_3225" data-name="Caminho 3225" d="M569.435,553.493H555.963a1.672,1.672,0,0,1,0-3.344h13.361a1.719,1.719,0,0,1,1.725,1.672,1.625,1.625,0,0,1-1.613,1.672Zm-26.833,0H529.241a1.672,1.672,0,0,1,0-3.344H542.6a1.672,1.672,0,0,1,0,3.344Zm-26.727,0H502.514a1.672,1.672,0,0,1,0-3.344h13.361a1.672,1.672,0,0,1,0,3.344Zm-26.728,0H475.786a1.672,1.672,0,0,1,0-3.344h13.361a1.672,1.672,0,0,1,0,3.344Zm-26.722,0H449.064a1.672,1.672,0,0,1,0-3.344h13.361a1.672,1.672,0,0,1,0,3.344Zm-26.722,0H422.342a1.672,1.672,0,0,1,0-3.344H435.7a1.672,1.672,0,0,1,0,3.344Zm-26.728,0H395.614a1.672,1.672,0,0,1,0-3.344h13.361a1.672,1.672,0,0,1,0,3.344Zm-26.722,0H368.893a1.672,1.672,0,0,1,0-3.344h13.361a1.672,1.672,0,0,1,0,3.344Zm-26.728,0H342.164a1.672,1.672,0,0,1,0-3.344h13.361a1.672,1.672,0,0,1,0,3.344Zm-26.722,0H315.443a1.672,1.672,0,0,1,0-3.344H328.8a1.672,1.672,0,0,1,0,3.344Zm-26.728,0H288.714a1.672,1.672,0,0,1,0-3.344h13.361a1.672,1.672,0,0,1,0,3.344Zm-26.722,0H261.993a1.672,1.672,0,0,1,0-3.344h13.361a1.672,1.672,0,0,1,0,3.344Zm-26.728,0H235.265a1.672,1.672,0,0,1,0-3.344h13.361a1.672,1.672,0,0,1,0,3.344Zm-26.722,0H208.543a1.672,1.672,0,0,1,0-3.344H221.9a1.672,1.672,0,0,1,0,3.344Zm-26.722,0H181.821a1.672,1.672,0,0,1,0-3.344h13.361a1.672,1.672,0,0,1,0,3.344Zm-26.728,0H155.093a1.672,1.672,0,0,1,0-3.344h13.361a1.672,1.672,0,0,1,0,3.344Zm-26.727,0H128.366a1.672,1.672,0,0,1,0-3.344h13.361a1.672,1.672,0,0,1,0,3.344Zm-26.728,0H101.638a1.672,1.672,0,0,1,0-3.344H115a1.672,1.672,0,0,1,0,3.344Zm-26.722,0H74.916a1.672,1.672,0,0,1,0-3.344H88.277a1.672,1.672,0,0,1,0,3.344Zm-26.728,0H48.188a1.672,1.672,0,0,1,0-3.344H61.549a1.672,1.672,0,0,1,0,3.344Zm-26.728,0H29.7a29.636,29.636,0,0,1-8.6-1.27,1.672,1.672,0,0,1,.969-3.2,26.312,26.312,0,0,0,7.635,1.126H34.82a1.672,1.672,0,0,1,0,3.344Zm547.512-3.179a1.672,1.672,0,0,1-.779-3.153,26.532,26.532,0,0,0,9.353-8.22,1.671,1.671,0,1,1,2.733,1.923,29.9,29.9,0,0,1-10.539,9.26,1.65,1.65,0,0,1-.817.191Zm-572.2-4.758a1.669,1.669,0,0,1-1.165-.474,29.806,29.806,0,0,1-7.46-11.891,1.67,1.67,0,1,1,3.169-1.056,26.457,26.457,0,0,0,6.618,10.549,1.672,1.672,0,0,1-1.162,2.871Zm586.92-16.318a1.517,1.517,0,0,1-.223-.016,1.672,1.672,0,0,1-1.433-1.878,26.65,26.65,0,0,0,.234-3.53V514.2a1.67,1.67,0,1,1,3.34,0v9.614a30.087,30.087,0,0,1-.263,3.969,1.671,1.671,0,0,1-1.653,1.455ZM1.67,521.113A1.671,1.671,0,0,1,0,519.441V506.066a1.67,1.67,0,1,1,3.34,0v13.375a1.671,1.671,0,0,1-1.67,1.672ZM597.3,502.493a1.671,1.671,0,0,1-1.67-1.672V487.446a1.67,1.67,0,1,1,3.34,0v13.376A1.671,1.671,0,0,1,597.3,502.493ZM1.67,494.356A1.671,1.671,0,0,1,0,492.684V479.309a1.67,1.67,0,1,1,3.34,0v13.376a1.671,1.671,0,0,1-1.67,1.672ZM597.3,475.742a1.671,1.671,0,0,1-1.67-1.672V460.695a1.67,1.67,0,1,1,3.34,0V474.07a1.671,1.671,0,0,1-1.67,1.666ZM1.67,467.6A1.671,1.671,0,0,1,0,465.927V452.551a1.67,1.67,0,1,1,3.34,0v13.375A1.671,1.671,0,0,1,1.67,467.6ZM597.3,448.984a1.671,1.671,0,0,1-1.67-1.672V433.937a1.67,1.67,0,1,1,3.34,0v13.376a1.671,1.671,0,0,1-1.67,1.666ZM1.67,440.842A1.671,1.671,0,0,1,0,439.17V425.787a1.67,1.67,0,1,1,3.34,0v13.375a1.671,1.671,0,0,1-1.67,1.68ZM597.3,422.22a1.671,1.671,0,0,1-1.67-1.672V407.173a1.67,1.67,0,1,1,3.34,0v13.376A1.671,1.671,0,0,1,597.3,422.22ZM1.67,414.083A1.671,1.671,0,0,1,0,412.411V399.036a1.67,1.67,0,1,1,3.34,0v13.376a1.671,1.671,0,0,1-1.67,1.672ZM597.3,395.469a1.671,1.671,0,0,1-1.67-1.672V380.422a1.67,1.67,0,1,1,3.34,0V393.8A1.671,1.671,0,0,1,597.3,395.469ZM1.67,387.332A1.671,1.671,0,0,1,0,385.66V372.285a1.67,1.67,0,1,1,3.34,0V385.66a1.671,1.671,0,0,1-1.67,1.672ZM597.3,368.718a1.671,1.671,0,0,1-1.67-1.672V353.671a1.67,1.67,0,1,1,3.34,0v13.376a1.671,1.671,0,0,1-1.67,1.662ZM1.67,360.57A1.671,1.671,0,0,1,0,358.9V345.523a1.67,1.67,0,1,1,3.34,0V358.9a1.671,1.671,0,0,1-1.67,1.672ZM597.3,341.956a1.671,1.671,0,0,1-1.67-1.672V326.908a1.67,1.67,0,1,1,3.34,0v13.376a1.671,1.671,0,0,1-1.67,1.666ZM1.67,333.814A1.671,1.671,0,0,1,0,332.142V318.766a1.67,1.67,0,1,1,3.34,0v13.375a1.671,1.671,0,0,1-1.67,1.672ZM597.3,315.194a1.671,1.671,0,0,1-1.67-1.672V300.146a1.67,1.67,0,1,1,3.34,0v13.376A1.671,1.671,0,0,1,597.3,315.194ZM1.67,307.056A1.671,1.671,0,0,1,0,305.384V292.008a1.67,1.67,0,1,1,3.34,0v13.376a1.671,1.671,0,0,1-1.67,1.672ZM597.3,288.442a1.671,1.671,0,0,1-1.67-1.672V273.394a1.67,1.67,0,1,1,3.34,0V286.77a1.671,1.671,0,0,1-1.67,1.666ZM1.67,280.3A1.671,1.671,0,0,1,0,278.627V265.252a1.67,1.67,0,1,1,3.34,0v13.376A1.671,1.671,0,0,1,1.67,280.3ZM597.3,261.685a1.671,1.671,0,0,1-1.67-1.672V246.638a1.67,1.67,0,1,1,3.34,0v13.375a1.671,1.671,0,0,1-1.67,1.666ZM1.67,253.542A1.671,1.671,0,0,1,0,251.87V238.494a1.67,1.67,0,1,1,3.34,0V251.87a1.671,1.671,0,0,1-1.67,1.672ZM597.3,234.927a1.671,1.671,0,0,1-1.67-1.672V219.88a1.67,1.67,0,1,1,3.34,0v13.375a1.671,1.671,0,0,1-1.67,1.666ZM1.67,226.785A1.671,1.671,0,0,1,0,225.113V211.738a1.67,1.67,0,1,1,3.34,0v13.376a1.671,1.671,0,0,1-1.67,1.672ZM597.3,208.171a1.671,1.671,0,0,1-1.67-1.672V193.123a1.67,1.67,0,1,1,3.34,0V206.5a1.671,1.671,0,0,1-1.67,1.666ZM1.67,200.028A1.671,1.671,0,0,1,0,198.356V184.981a1.67,1.67,0,1,1,3.34,0v13.375a1.671,1.671,0,0,1-1.67,1.672ZM597.3,181.407a1.671,1.671,0,0,1-1.67-1.672V166.36a1.67,1.67,0,1,1,3.34,0v13.376A1.671,1.671,0,0,1,597.3,181.407ZM1.67,173.271A1.671,1.671,0,0,1,0,171.6V158.223a1.67,1.67,0,1,1,3.34,0V171.6a1.671,1.671,0,0,1-1.67,1.672ZM597.3,154.656a1.671,1.671,0,0,1-1.67-1.672V139.609a1.67,1.67,0,1,1,3.34,0v13.376a1.671,1.671,0,0,1-1.67,1.666ZM1.67,146.514A1.671,1.671,0,0,1,0,144.842V131.467a1.67,1.67,0,1,1,3.34,0v13.375a1.671,1.671,0,0,1-1.67,1.672ZM597.3,127.893a1.671,1.671,0,0,1-1.67-1.672V112.846a1.67,1.67,0,1,1,3.34,0v13.375A1.671,1.671,0,0,1,597.3,127.893ZM1.67,119.756A1.671,1.671,0,0,1,0,118.085V104.709a1.67,1.67,0,1,1,3.34,0v13.376a1.671,1.671,0,0,1-1.67,1.672ZM597.3,101.142a1.671,1.671,0,0,1-1.67-1.672V86.095a1.67,1.67,0,1,1,3.34,0V99.47a1.671,1.671,0,0,1-1.67,1.666ZM1.67,93A1.671,1.671,0,0,1,0,91.328V77.952a1.67,1.67,0,1,1,3.34,0V91.328A1.671,1.671,0,0,1,1.67,93ZM597.3,74.379a1.671,1.671,0,0,1-1.67-1.672V59.332a1.67,1.67,0,1,1,3.34,0V72.707a1.671,1.671,0,0,1-1.67,1.672ZM1.67,66.242A1.671,1.671,0,0,1,0,64.57V51.195a1.67,1.67,0,1,1,3.34,0V64.57a1.671,1.671,0,0,1-1.67,1.672ZM597.3,47.628a1.671,1.671,0,0,1-1.67-1.672V32.58a1.67,1.67,0,1,1,3.34,0V45.956a1.671,1.671,0,0,1-1.67,1.666ZM1.67,39.486A1.671,1.671,0,0,1,0,37.814V26.356c0-.675.026-1.363.077-2.044a1.671,1.671,0,1,1,3.332.252q-.069.886-.069,1.792V37.814a1.671,1.671,0,0,1-1.67,1.672ZM596.276,20.968a1.67,1.67,0,0,1-1.6-1.2,23.013,23.013,0,0,0-6.551-10.426,1.671,1.671,0,0,1,2.25-2.471,26.345,26.345,0,0,1,7.5,11.943,1.672,1.672,0,0,1-1.122,2.08,1.7,1.7,0,0,1-.479.07ZM6.251,13.693a1.672,1.672,0,0,1-1.357-2.644A26.393,26.393,0,0,1,15.843,2.174a1.673,1.673,0,0,1,1.336,3.067,23.052,23.052,0,0,0-9.563,7.752,1.67,1.67,0,0,1-1.365.7ZM577.477,3.818a1.656,1.656,0,0,1-.328-.032,23.093,23.093,0,0,0-4.5-.441h-8.5a1.672,1.672,0,0,1,0-3.344h8.5a26.487,26.487,0,0,1,5.163.507,1.672,1.672,0,0,1-.33,3.31Zm-26.7-.474H537.419a1.672,1.672,0,0,1,0-3.344H550.78a1.672,1.672,0,0,1,0,3.344Zm-26.722,0H510.7A1.672,1.672,0,0,1,510.7,0h13.361a1.672,1.672,0,0,1,0,3.344Zm-26.734,0H483.964a1.672,1.672,0,0,1,0-3.344h13.361a1.672,1.672,0,0,1,0,3.344Zm-26.727,0H457.236a1.672,1.672,0,0,1,0-3.344H470.6a1.672,1.672,0,0,1,0,3.344Zm-26.728,0H430.508a1.672,1.672,0,0,1,0-3.344h13.361a1.672,1.672,0,0,1,0,3.344Zm-26.728,0H403.78a1.672,1.672,0,0,1,0-3.344h13.361a1.672,1.672,0,0,1,0,3.344Zm-26.722,0H377.058a1.672,1.672,0,0,1,0-3.344h13.361a1.672,1.672,0,0,1,0,3.344Zm-26.722,0H350.337a1.672,1.672,0,0,1,0-3.344H363.7a1.672,1.672,0,0,1,0,3.344Zm-26.722,0H323.615a1.672,1.672,0,0,1,0-3.344h13.361a1.672,1.672,0,0,1,0,3.344Zm-26.745,0H296.87a1.672,1.672,0,0,1,0-3.344h13.361a1.672,1.672,0,0,1,0,3.344Zm-26.728,0H270.142a1.672,1.672,0,0,1,0-3.344H283.5a1.672,1.672,0,0,1,0,3.344Zm-26.722,0H243.42a1.672,1.672,0,0,1,0-3.344h13.361a1.672,1.672,0,0,1,0,3.344Zm-26.734,0H216.686a1.672,1.672,0,0,1,0-3.344h13.361a1.672,1.672,0,0,1,0,3.344Zm-26.722,0H189.965a1.672,1.672,0,0,1,0-3.344h13.361a1.672,1.672,0,0,1,0,3.344Zm-26.734,0H163.231a1.672,1.672,0,0,1,0-3.344h13.361a1.672,1.672,0,0,1,0,3.344Zm-26.722,0H136.509a1.672,1.672,0,0,1,0-3.344H149.87a1.672,1.672,0,0,1,0,3.344Zm-26.722,0H109.788a1.672,1.672,0,0,1,0-3.344h13.361a1.672,1.672,0,0,1,0,3.344Zm-26.739,0H83.048a1.672,1.672,0,0,1,0-3.344H96.409a1.672,1.672,0,0,1,0,3.344Zm-26.727,0H56.321a1.672,1.672,0,0,1,0-3.344H69.682a1.672,1.672,0,0,1,0,3.344Zm-26.728,0H29.593a1.672,1.672,0,0,1,0-3.344H42.954a1.672,1.672,0,0,1,0,3.344Z" fill="#b679ea"/>
          </g>
        </g>
      </g>
    </g>
    <g id="Grupo_3856" data-name="Grupo 3856" transform="translate(568.139 170.315)">
      <g id="Grupo_3855" data-name="Grupo 3855" transform="translate(0 0)">
        <g id="Layer_2-3" data-name="Layer 2">
          <g id="Layer_1-3" data-name="Layer 1">
            <path id="Caminho_3226" data-name="Caminho 3226" d="M292.1,201.746l1.126,44.973A33.925,33.925,0,0,1,259.15,281.5l-35.84-.179,29.226-90.9Z" transform="translate(-29.179 -24.883)" fill="#edad94"/>
            <path id="Caminho_3227" data-name="Caminho 3227" d="M197.9,16.858c-3.3,13.517-22.933,37.124-17.65,56.587,3.182,11.714,4.322,27.153-5.283,47.4-6.544,13.756,26.835,11.533,41.483-3.064s8.525-62.414,8.525-62.414Z" transform="translate(-22.753 -2.203)" fill="#2b2b2b"/>
            <path id="Caminho_3228" data-name="Caminho 3228" d="M104.339,136.6l55.411,10.632-19.627,3.246,49.708-34.6a23.125,23.125,0,0,1,26.415,37.965l-49.708,34.6-1.561,1.082a19.381,19.381,0,0,1-18.009,2.1L96.239,171.746Z" transform="translate(-12.575 -14.6)" fill="url(#linear-gradient)"/>
            <path id="Caminho_3229" data-name="Caminho 3229" d="M186.837,193.231c-.181-26.972,18.37-25.889,11.046-43.972-6.245-15.5-1.26-36.4,13.327-42.231a22.117,22.117,0,0,1,8.1-1.5c15.969-.12,17.049-.781,23.774-.841a31.718,31.718,0,0,1,10.266,1.682c15.491,5.467,24.854,23.188,19.931,40.128a33.764,33.764,0,0,0-1.379,10.693c.18,6.127,15.248,15.014,15.429,33.518Z" transform="translate(-24.413 -13.679)" fill="url(#linear-gradient-2)"/>
            <path id="Caminho_3230" data-name="Caminho 3230" d="M257.147,106.367a20.6,20.6,0,0,1-12.185,16.339l-15.369,6.789a10.377,10.377,0,0,1-14.528-9.431l-.12-13.036a22.117,22.117,0,0,1,8.1-1.5c15.969-.12,17.049-.781,23.774-.841A30.775,30.775,0,0,1,257.147,106.367Z" transform="translate(-28.086 -13.679)" fill="#fff"/>
            <path id="Caminho_3231" data-name="Caminho 3231" d="M250.236,157.27l-16.509,31.177,38.241,7.329,6.724-12.615Z" transform="translate(-30.54 -20.55)" fill="#2b2b2b"/>
            <path id="Caminho_3232" data-name="Caminho 3232" d="M195.682,176a.77.77,0,0,1-.6-.243.929.929,0,0,1-.06-1.261,16.245,16.245,0,0,0,3.182-18.26.887.887,0,1,1,1.56-.841,18.3,18.3,0,0,1-3.422,20.3.963.963,0,0,1-.66.3Z" transform="translate(-25.454 -20.242)" fill="#2b2b2b"/>
            <path id="Caminho_3233" data-name="Caminho 3233" d="M247.739,283.858l-76.482-.252,30.5-32.439-2.758,188.745-44.846-.661c-.72-3.965-1.26-7.872-1.921-11.834l-1.684-11.834c-1.14-7.872-2.1-15.739-3.062-23.669-1.861-15.739-3.482-31.537-4.923-47.276-.66-7.872-1.379-15.739-1.981-23.608l-.9-11.831-.841-11.834q-1.622-23.608-2.762-47.216a29.834,29.834,0,0,1,23.474-30.637l6.664-1.441c6.183-1.322,12.367-2.463,18.55-3.484,6.183-.962,12.427-1.8,18.61-2.4,6.245-.6,12.49-1.022,18.73-1.082h4.681c1.561.06,3.122.06,4.683.121s3.122.12,4.742.243l2.341.243,1.2.12,41.067-2.574,1.127,39.507a34.12,34.12,0,0,1-34.206,35.095Z" transform="translate(-17.776 -27.343)" fill="#c0273c"/>
            <path id="Caminho_3234" data-name="Caminho 3234" d="M217.187,262.915l38.146,26.739H259.7l4.659-.369,4.5-1.088,5.112-2.15,3.834-2.411,2.331-1.458L278.4,252.8Z" transform="translate(-28.379 -33.033)" fill="#2b2b2b"/>
            <path id="Caminho_3235" data-name="Caminho 3235" d="M256.944,271.675,148.457,236.924l36.862-12.135L73.535,366.259,39.677,334.121C45.8,320.6,80.26,274.409,87.4,261.674c3.6-6.368,7.144-12.735,10.868-19.043l5.463-9.491,5.583-9.431q11.166-18.832,22.692-37.365a29.523,29.523,0,0,1,31.7-13.155l4.743,1.141c10.806,2.523,21.493,5.287,32.178,8.11,10.686,2.944,21.312,5.887,31.818,9.191,10.566,3.246,35.785,12.8,35.785,12.8Z" transform="translate(-5.185 -22.531)" fill="#c0273c"/>
            <path id="Caminho_3236" data-name="Caminho 3236" d="M120.059,333.13l13.927-65.3,9.365,35.863Z" transform="translate(-15.688 -34.997)" fill="#2b2b2b"/>
            <path id="Caminho_3237" data-name="Caminho 3237" d="M171.2,235.374a.963.963,0,0,1-.66-.3l-6.664-7.268a.893.893,0,1,1,1.321-1.2l6.664,7.268a.871.871,0,0,1-.06,1.261.771.771,0,0,1-.6.24Z" transform="translate(-21.383 -29.572)" fill="#2b2b2b"/>
            <path id="Caminho_3238" data-name="Caminho 3238" d="M210.861,77.453l18.61-1.141a17.469,17.469,0,0,0,16.389-18.5l-1.68-28.113a27.955,27.955,0,0,0-29.6-26.249h0A27.96,27.96,0,0,0,188.348,33.06l1.56,25.771A19.818,19.818,0,0,0,210.861,77.453Z" transform="translate(-24.604 -0.444)" fill="#fdc068"/>
            <path id="Caminho_3239" data-name="Caminho 3239" d="M231.576,114.733l23.414-10.272-5.7-52.983-29.716,1.8.48,53.945a8.223,8.223,0,0,0,11.526,7.509Z" transform="translate(-28.69 -6.727)" fill="#fdc068"/>
            <ellipse id="Elipse_795" data-name="Elipse 795" cx="3.182" cy="3.184" rx="3.182" ry="3.184" transform="translate(164.164 37.543)" fill="#2b2b2b"/>
            <path id="Caminho_3240" data-name="Caminho 3240" d="M201.306,55.627a.751.751,0,0,1-.36-.061l-2.7-1.441a2.834,2.834,0,0,1-1.261-1.923,3.108,3.108,0,0,1,.541-2.282l3.662-4.986a.775.775,0,1,1,1.26.9l-3.662,4.986a1.34,1.34,0,0,0-.243,1.081,1.169,1.169,0,0,0,.54.842l2.582,1.38a.845.845,0,0,1,.36,1.081.916.916,0,0,1-.719.423Z" transform="translate(-25.734 -5.829)" fill="#2b2b2b"/>
            <path id="Caminho_3241" data-name="Caminho 3241" d="M201.611,69.584h-.48a6.025,6.025,0,0,1-4.023-2.463.783.783,0,1,1,1.321-.841,4.578,4.578,0,0,0,2.882,1.8c1.26.12,2.582-.541,3.962-1.923a.764.764,0,1,1,1.08,1.081A6.862,6.862,0,0,1,201.611,69.584Z" transform="translate(-25.739 -8.614)" fill="#2b2b2b"/>
            <ellipse id="Elipse_796" data-name="Elipse 796" cx="3.182" cy="3.184" rx="3.182" ry="3.184" transform="translate(182.295 36.581)" fill="#2b2b2b"/>
            <path id="Caminho_3242" data-name="Caminho 3242" d="M271.805,143.293l54.81-5.707L313.888,180l-49.407-32.559a23.113,23.113,0,0,1,25.394-38.626l49.408,32.559,1.981,1.322a22.481,22.481,0,0,1-14.648,41.146l-50.128-5.467Z" transform="translate(-33.199 -13.721)" fill="url(#linear-gradient-3)"/>
            <path id="Caminho_3243" data-name="Caminho 3243" d="M284.027,157.645a.874.874,0,0,1-.78-.42l-8.525-13.156a.893.893,0,0,1,.243-1.262.943.943,0,0,1,1.26.243l8.522,13.151a.893.893,0,0,1-.243,1.261.681.681,0,0,1-.477.182Z" transform="translate(-35.876 -18.642)" fill="#2b2b2b"/>
            <path id="Caminho_3244" data-name="Caminho 3244" d="M298.276,166.324a21.809,21.809,0,0,1-10.326,18.562l-9.185-1.022s-7.264-9.311-7.264-16.519a83.171,83.171,0,0,1,2.582-18.5l13.327-1.38A21.834,21.834,0,0,1,298.276,166.324Z" transform="translate(-35.476 -19.269)" fill="#fff"/>
            <path id="Caminho_3245" data-name="Caminho 3245" d="M141.889,491.253h48.928a7.933,7.933,0,0,0,7.924-7.809l.18-10.453-45.325.42-12.727,9.912A4.024,4.024,0,0,0,141.889,491.253Z" transform="translate(-18.007 -61.804)" fill="#2b2b2b"/>
            <path id="Caminho_3246" data-name="Caminho 3246" d="M1.234,349.913,49.74,395.748a7.915,7.915,0,0,0,11.107.06l7.5-7.268L34.493,356.4,6.1,343.55C2.014,341.143-2.128,346.553,1.234,349.913Z" transform="translate(0 -44.813)" fill="#2b2b2b"/>
            <path id="Caminho_3247" data-name="Caminho 3247" d="M207.627,4.351c-1.26,8.229-13.447,23.247-19.271,24.87C188.416,29.221,189.437,8.256,207.627,4.351Z" transform="translate(-24.612 -0.569)" fill="#2b2b2b"/>
            <path id="Caminho_3248" data-name="Caminho 3248" d="M140.815,328.975c0-4.325-3.244-32.739-5.163-57.788a32.724,32.724,0,0,1,27.255-34.722h0a32.626,32.626,0,0,1,37.881,32.259l-.06,44.993Z" transform="translate(-17.713 -30.842)" fill="#c0273c"/>
            <path id="Caminho_3249" data-name="Caminho 3249" d="M193.6,242.817l31.638,28.294-20.112.48Z" transform="translate(-25.298 -31.728)" fill="#c0273c"/>
            <path id="Caminho_3250" data-name="Caminho 3250" d="M210.6,292.233a.923.923,0,0,1-.9-.9V279.859a.9.9,0,1,1,1.8,0v11.473A.923.923,0,0,1,210.6,292.233Z" transform="translate(-27.4 -36.451)" fill="#2b2b2b"/>
            <path id="Caminho_3251" data-name="Caminho 3251" d="M203.061,6.186c-9.785,7.872,8.525,21.75,20.292,30.4,14.588,10.753-3.422,55.086,19.391,77.793s33.5-8.409,57.032-7.749c5.643.12-11.467-6.488-17.71-35.141C277.5,50.58,256.131,48.6,254.029,39.59c-.66-2.944-2.881-19.463-13.687-29.975C230.257-.182,216.209-4.387,203.061,6.186Z" transform="translate(-26.17 -0.001)" fill="#2b2b2b"/>
            <path id="Caminho_3252" data-name="Caminho 3252" d="M92.352,175.082l-15.189-5.947a16.734,16.734,0,0,1,9.246-32.018l14.108,2.7Z" transform="translate(-8.693 -17.877)" fill="#fdc068"/>
            <path id="Caminho_3253" data-name="Caminho 3253" d="M272.6,183.991l-8.584-.9a16.962,16.962,0,0,1-15.248-18.2A16.713,16.713,0,0,1,263.72,149.75l7.381-.781a12.484,12.484,0,0,1,8.585,2.343l1.921,1.38a16.582,16.582,0,0,1,5.4,19.824l-1.741,4.025A12.275,12.275,0,0,1,272.6,183.991Z" transform="translate(-32.497 -19.458)" fill="#fdc068"/>
            <path id="Caminho_3254" data-name="Caminho 3254" d="M145.476,157.134a.855.855,0,0,1-.72-.36.933.933,0,0,1,.18-1.262l8.4-6.006a.9.9,0,0,1,1.08,1.442l-8.4,6.006A.968.968,0,0,1,145.476,157.134Z" transform="translate(-18.893 -19.512)" fill="#2b2b2b"/>
            <path id="Caminho_3255" data-name="Caminho 3255" d="M291.667,147.564a.91.91,0,0,1-.9-.781.843.843,0,0,1,.781-.962l29.117-3.064a.842.842,0,0,1,.96.782.882.882,0,0,1-.78.961l-29.117,3.064Z" transform="translate(-37.992 -18.653)" fill="#2b2b2b"/>
            <path id="Caminho_3256" data-name="Caminho 3256" d="M104.339,140.341l-8.1,35.2,9.785,3.844,7.925-37.184Z" transform="translate(-12.575 -18.338)" fill="#fff"/>
            <path id="Caminho_3257" data-name="Caminho 3257" d="M134.771,269.655a.923.923,0,0,1-.9-.9c-.06-16.279,12.307-30.515,28.756-33.22h.12a17.3,17.3,0,0,1,11.887,2.583l33.859,21.75a.917.917,0,0,1-.961,1.562l-33.858-21.75a15.779,15.779,0,0,0-10.746-2.342h-.12c-15.549,2.583-27.2,16.039-27.135,31.417a.923.923,0,0,1-.9.9Z" transform="translate(-17.492 -30.753)" fill="#2b2b2b"/>
            <path id="Caminho_3258" data-name="Caminho 3258" d="M217.982,90.1a.905.905,0,0,1-.9-.721.893.893,0,0,1,.72-1.022l8.825-1.5a.884.884,0,0,1,.3,1.742L218.1,90.1Z" transform="translate(-28.364 -11.348)" fill="#2b2b2b"/>
          </g>
        </g>
      </g>
    </g>
    <g id="Grupo_3858" data-name="Grupo 3858" transform="translate(187.374 252.032)">
      <g id="Grupo_3857" data-name="Grupo 3857" transform="translate(0)">
        <g id="Layer_2-4" data-name="Layer 2">
          <g id="pie_chart-i3">
            <path id="Caminho_3259" data-name="Caminho 3259" d="M140.893,112.757l103.63,45.249A116.567,116.567,0,0,0,140.893,0Z" transform="translate(-18.413)" fill="#7e9dae"/>
            <path id="Caminho_3260" data-name="Caminho 3260" d="M116.33,103.923V0A116.653,116.653,0,0,0,38.66,34.621Z" transform="translate(-5.054)" fill="#f9d5ff"/>
            <path id="Caminho_3261" data-name="Caminho 3261" d="M114.634,127.993l-.442-.228-.229-.137a4.608,4.608,0,0,1-.763-.563h0l-87.065-77.6a116.773,116.773,0,1,0,195.485,125.3Z" transform="translate(-0.003 -6.463)" fill="#c0273c"/>
            <path id="Caminho_3262" data-name="Caminho 3262" d="M207.792,196.684a6.181,6.181,0,0,0-3.4-3.847l-56.513-24.662a6.1,6.1,0,0,0-8.45,6.69l9.777,52.425a6.1,6.1,0,0,0,5.995,4.972h.534a68.052,68.052,0,0,0,51.3-30.409A6.066,6.066,0,0,0,207.792,196.684Z" transform="translate(-18.208 -21.908)" fill="#c0273c"/>
          </g>
        </g>
      </g>
    </g>
    <g id="Grupo_3860" data-name="Grupo 3860" transform="translate(470.774 334.619)">
      <g id="Grupo_3859" data-name="Grupo 3859">
        <g id="Layer_2-5" data-name="Layer 2">
          <g id="Layer_1-4" data-name="Layer 1">
            <rect id="Retângulo_2833" data-name="Retângulo 2833" width="12.361" height="257.603" transform="translate(65.514 8.414)" fill="#f9d5ff"/>
            <rect id="Retângulo_2834" data-name="Retângulo 2834" width="12.361" height="257.603" transform="translate(0 8.414)" fill="#f9d5ff"/>
            <rect id="Retângulo_2835" data-name="Retângulo 2835" width="12.361" height="17.755" transform="translate(0 6.001)" fill="#2b2b2b"/>
            <rect id="Retângulo_2836" data-name="Retângulo 2836" width="12.361" height="17.755" transform="translate(65.514 6.001)" fill="#2b2b2b"/>
            <rect id="Retângulo_2837" data-name="Retângulo 2837" width="464.223" height="8.414" fill="#2b2b2b"/>
            <rect id="Retângulo_2838" data-name="Retângulo 2838" width="12.361" height="257.603" transform="translate(451.491 8.414)" fill="#f9d5ff"/>
            <rect id="Retângulo_2839" data-name="Retângulo 2839" width="12.361" height="257.603" transform="translate(385.977 8.414)" fill="#f9d5ff"/>
            <rect id="Retângulo_2840" data-name="Retângulo 2840" width="12.361" height="17.755" transform="translate(385.977 6.001)" fill="#2b2b2b"/>
            <rect id="Retângulo_2841" data-name="Retângulo 2841" width="12.361" height="17.755" transform="translate(451.491 6.001)" fill="#2b2b2b"/>
          </g>
        </g>
      </g>
    </g>
    <g id="Grupo_3862" data-name="Grupo 3862" transform="translate(535.974 172.053)">
      <g id="Grupo_3861" data-name="Grupo 3861" transform="translate(0 0)">
        <g id="Layer_2-6" data-name="Layer 2">
          <g id="Layer_1-5" data-name="Layer 1">
            <path id="Caminho_3263" data-name="Caminho 3263" d="M189.6.082H21.14a10.067,10.067,0,0,0-10.06,10.1V119.836a10.067,10.067,0,0,0,10.06,10.1H189.667a10.053,10.053,0,0,0,9.988-10.1V10.182A10.067,10.067,0,0,0,189.6.082Z" transform="translate(-1.448 -0.011)" fill="#2b2b2b"/>
            <path id="Caminho_3264" data-name="Caminho 3264" d="M178.319,129.012H10.649a9.428,9.428,0,0,1-9.419-9.455V10.69a9.427,9.427,0,0,1,9.419-9.455h167.67a9.428,9.428,0,0,1,9.419,9.455V119.557a9.521,9.521,0,0,1-9.418,9.455Z" transform="translate(-0.161 -0.161)" fill="#fff"/>
            <path id="Caminho_3265" data-name="Caminho 3265" d="M178.159,129.925H10.488A10.527,10.527,0,0,1,0,119.4V10.529A10.527,10.527,0,0,1,10.488,0h167.67a10.527,10.527,0,0,1,10.488,10.529V119.4a10.624,10.624,0,0,1-10.488,10.529ZM10.488,2.149a8.329,8.329,0,0,0-8.348,8.38V119.4a8.329,8.329,0,0,0,8.348,8.38h167.67a8.468,8.468,0,0,0,8.348-8.38V10.529a8.329,8.329,0,0,0-8.348-8.38Z" transform="translate(0 0)" fill="#2b2b2b"/>
            <path id="Caminho_3266" data-name="Caminho 3266" d="M125.8,73.571a1.1,1.1,0,0,0-1.213.644L98.476,138.032a1.215,1.215,0,0,0,.071,1,1.087,1.087,0,0,0,.856.5h26.114a1.1,1.1,0,0,0,1.071-1.074V74.644a1,1,0,0,0-.786-1.073Z" transform="translate(-12.858 -9.611)" fill="#2b2b2b"/>
            <path id="Caminho_3267" data-name="Caminho 3267" d="M143.67,173H69.752a7.742,7.742,0,0,1-7.492-9.6l21.688-88.6h36.888L100.5,157.749a7.727,7.727,0,0,0,7.563,9.6l36.6-.072c.5,0,0,4.226,0,4.728h0a.977.977,0,0,1-1,1Z" transform="translate(-8.106 -9.775)" fill="#fff"/>
            <path id="Caminho_3268" data-name="Caminho 3268" d="M143.511,173.928H69.593A8.729,8.729,0,0,1,61.1,163.041l21.9-89.386h39.1l-20.692,84.3a6.624,6.624,0,0,0,1.214,5.729,6.378,6.378,0,0,0,5.279,2.507l36.6-.072a1.179,1.179,0,0,1,.856.358c.5.5.571,1.433.289,4.727a5.549,5.549,0,0,1-.071.717A2.06,2.06,0,0,1,143.511,173.928Zm-58.863-98.2L63.172,163.542a6.431,6.431,0,0,0,1.213,5.659,6.618,6.618,0,0,0,5.205,2.579h73.846a4.912,4.912,0,0,1,.071-.86c.071-.573.143-1.935.143-2.721l-35.746.072a8.64,8.64,0,0,1-6.992-3.295,8.8,8.8,0,0,1-1.639-7.592L119.252,75.8h-34.6Z" transform="translate(-7.947 -9.624)" fill="#2b2b2b"/>
          </g>
        </g>
      </g>
    </g>
    <g id="Grupo_3864" data-name="Grupo 3864" transform="matrix(0.193, 0.981, -0.981, 0.193, 504.22, 77.615)">
      <g id="Grupo_3863" data-name="Grupo 3863" transform="translate(0 0)">
        <rect id="Retângulo_2842" data-name="Retângulo 2842" width="382.518" height="5.342" transform="matrix(0.189, -0.982, 0.982, 0.188, 0, 375.631)" fill="#c0273c"/>
      </g>
    </g>
    <g id="Grupo_3866" data-name="Grupo 3866" transform="matrix(0.194, 0.981, -0.981, 0.195, 475.823, 111.013)">
      <g id="Grupo_3865" data-name="Grupo 3865" transform="translate(0 0)">
        <rect id="Retângulo_2843" data-name="Retângulo 2843" width="352.443" height="4.923" transform="matrix(0.189, -0.982, 0.982, 0.188, 0, 346.094)" fill="#c0273c"/>
      </g>
    </g>
    <g id="Grupo_3868" data-name="Grupo 3868" transform="translate(489.03 292.024) rotate(180)">
      <g id="Grupo_3867" data-name="Grupo 3867">
        <g id="Layer_2-7" data-name="Layer 2">
          <g id="Layer_1-6" data-name="Layer 1">
            <path id="Caminho_3269" data-name="Caminho 3269" d="M167.738,0a3.958,3.958,0,0,0-1.088.306L102.135,47.9H1.71a1.7,1.7,0,1,0,0,3.4H102.756a3.958,3.958,0,0,0,1.088-.306L168.826,3.1a1.558,1.558,0,0,0,.308-2.318,1.49,1.49,0,0,0-1.4-.775Z" fill="#7e9dae"/>
          </g>
        </g>
      </g>
    </g>
    <g id="Grupo_3870" data-name="Grupo 3870" transform="translate(278.638 541.523) rotate(180)">
      <g id="Grupo_3869" data-name="Grupo 3869" transform="translate(0)">
        <g id="Layer_2-8" data-name="Layer 2">
          <g id="Layer_1-7" data-name="Layer 1">
            <path id="Caminho_3270" data-name="Caminho 3270" d="M141.879,0H35.978a1.677,1.677,0,0,0-1.523.9L.17,71.6a1.542,1.542,0,0,0,.762,2.118,1.562,1.562,0,0,0,2.134-.75L36.893,3.182H141.728a1.687,1.687,0,0,0,1.677-1.666,1.422,1.422,0,0,0-.419-1.1A1.442,1.442,0,0,0,141.879,0Z" fill="#b679ea"/>
            <path id="Caminho_3271" data-name="Caminho 3271" d="M52.828,0H1.627a1.666,1.666,0,0,0,0,3.331h51.2A1.687,1.687,0,0,0,54.5,1.667a1.582,1.582,0,0,0-.466-1.2A1.6,1.6,0,0,0,52.828,0Z" transform="translate(53.246 26.489)" fill="#b679ea"/>
          </g>
        </g>
      </g>
    </g>
  </g>
</svg>
