<svg xmlns="http://www.w3.org/2000/svg" xmlns:xlink="http://www.w3.org/1999/xlink" width="724.009" height="616.318" viewBox="0 0 724.009 616.318">
  <defs>
    <linearGradient id="linear-gradient" x1="0.804" y1="3.652" x2="0.804" y2="2.977" gradientUnits="objectBoundingBox">
      <stop offset="0" stop-color="#9774ac"/>
      <stop offset="0.401" stop-color="#9774ac"/>
      <stop offset="0.501" stop-color="#a7a7ae"/>
      <stop offset="0.591" stop-color="#e89ac0"/>
      <stop offset="1" stop-color="#bfe7d1"/>
    </linearGradient>
    <linearGradient id="linear-gradient-2" x1="0.5" y1="2.854" x2="0.5" y2="3.94" gradientUnits="objectBoundingBox">
      <stop offset="0" stop-color="#ffe0c2"/>
      <stop offset="0.401" stop-color="#ca7cd5"/>
      <stop offset="0.591" stop-color="#b8c1fc"/>
      <stop offset="1" stop-color="#d2d4d4"/>
    </linearGradient>
    <linearGradient id="linear-gradient-3" y1="2.757" y2="3.763" xlink:href="#linear-gradient-2"/>
    <linearGradient id="linear-gradient-4" y1="9.609" y2="14.622" xlink:href="#linear-gradient-2"/>
    <linearGradient id="linear-gradient-5" x1="0.5" y1="28.72" x2="0.5" y2="21.192" xlink:href="#linear-gradient"/>
    <linearGradient id="linear-gradient-6" x1="0.5" y1="7.522" x2="0.5" y2="5.751" xlink:href="#linear-gradient"/>
    <linearGradient id="linear-gradient-7" x1="0.5" y1="-6.51" x2="0.5" y2="-15.919" gradientUnits="objectBoundingBox">
      <stop offset="0" stop-color="#cdc1d3"/>
      <stop offset="0.409" stop-color="#d8727e"/>
      <stop offset="0.499" stop-color="#949eff"/>
      <stop offset="0.599" stop-color="#92b7b7"/>
      <stop offset="1" stop-color="#f3ecd8"/>
    </linearGradient>
  </defs>
  <g id="marginalia-online-cooperation" transform="translate(-184 -39)">
    <g id="Grupo_3872" data-name="Grupo 3872" transform="translate(184 39)">
      <g id="Grupo_3871" data-name="Grupo 3871">
        <g id="Layer_2" data-name="Layer 2">
          <g id="Layer_1" data-name="Layer 1">
            <path id="Caminho_3272" data-name="Caminho 3272" d="M724.009,86.169v-2.2h-.09L723.9,0H0V616.318H724.009l-.014-88.9h.014v-2.207h-.015l-.015-86.068h.03v-2.208h-.03l-.015-85.959h.045v-2.207h-.045l-.014-86.064h.06V260.5h-.061l-.014-86.065h.075v-2.207h-.075l-.015-86.064ZM721.7,2.417V83.965H635.71V2.417Zm-88.194,0V83.965H544.685V2.417ZM361.585,262.711h89.872v86.064H361.585Zm-2.2,86.064H269.511V262.711h89.872Zm2.2-88.27V174.44h89.872V260.5Zm-2.2,0H269.511V174.44h89.872Zm-92.074,0H177.328V174.44H267.3Zm0,2.207v86.064H177.328V262.711Zm0,88.27V436.94H177.328V350.981Zm2.2,0h89.872V436.94H269.511Zm92.074,0h89.872V436.94H361.585Zm92.074,0h88.824V436.94H453.659Zm0-2.207V262.711h88.824v86.064Zm0-88.27V174.44h88.824V260.5Zm0-88.271V86.169h88.824v86.064Zm-2.2,0H361.585V86.169h89.872Zm-92.074,0H269.511V86.169h89.872Zm-92.074,0H177.328V86.169H267.3Zm-92.179,0H85.258V86.169H175.13Zm0,2.207V260.5H85.258V174.44Zm0,88.271v86.064H85.258V262.711Zm0,88.27V436.94H85.258V350.981Zm0,88.166v86.064H85.258V439.146Zm2.2,0h89.977v86.064H177.328Zm92.179,0h89.872v86.064H269.511Zm92.074,0h89.872v86.064H361.585Zm92.074,0h88.824v86.064H453.659Zm91.026,0h88.823v86.064H544.685Zm0-2.208V350.981h88.823V436.94Zm0-88.165V262.711h88.823v86.064Zm0-88.27V174.44h88.823V260.5Zm0-88.271V86.169h88.823v86.064Zm-2.2-169.816V83.965H453.659V2.417Zm-91.026,0V83.965H361.585V2.417Zm-92.074,0V83.965H269.511V2.417Zm-92.074,0V83.965H177.328V2.417Zm-92.179,0V83.965H85.258V2.417Zm-172.823,0H83.056V83.965H2.308Zm0,83.752H83.056v86.064H2.308Zm0,88.27H83.056V260.5H2.308Zm0,88.271H83.056v86.064H2.308Zm0,88.27H83.056V436.94H2.308Zm0,88.166H83.056v86.064H2.308Zm0,174.86v-86.59H83.056v86.59Zm82.95,0v-86.59H175.13v86.59Zm92.074,0v-86.59h89.977v86.59Zm92.179,0v-86.59h89.872v86.59Zm92.074,0v-86.59h89.872v86.59Zm92.074,0v-86.59h88.824v86.59Zm91.026,0v-86.59h88.823v86.59Zm177.02,0h-86v-86.59H721.7Zm0-88.8h-86V439.146H721.7Zm0-88.271h-86V350.982H721.7Zm0-88.165h-86V262.711H721.7Zm0-88.27h-86V174.44H721.7Zm0-88.271h-86V86.169H721.7Z" fill="#c4ecfe"/>
          </g>
        </g>
      </g>
    </g>
    <g id="Grupo_3874" data-name="Grupo 3874" transform="translate(220.449 280.061)">
      <g id="Grupo_3873" data-name="Grupo 3873" transform="translate(0 0)">
        <g id="Layer_2-2" data-name="Layer 2">
          <g id="Layer_1-2" data-name="Layer 1">
            <path id="Caminho_3273" data-name="Caminho 3273" d="M273.417,47.587V236.224a10.965,10.965,0,0,1-10.984,10.98h-249a10.965,10.965,0,0,1-10.985-10.98V47.587" transform="translate(-0.42 -8.166)" fill="#fff"/>
            <path id="Caminho_3274" data-name="Caminho 3274" d="M262.013,249.229h-249A13.007,13.007,0,0,1,0,236.221V47.587H4.053V236.224a8.958,8.958,0,0,0,8.958,8.954h249a8.958,8.958,0,0,0,8.958-8.954V47.587h4.053V236.224A13.023,13.023,0,0,1,262.013,249.229Z" transform="translate(0 -8.166)" fill="#f9d5ff"/>
            <path id="Caminho_3275" data-name="Caminho 3275" d="M271.214,3.808A12.875,12.875,0,0,0,262.013,0h-249A13.023,13.023,0,0,0,0,13.005V41.446H275.025V13.005a12.794,12.794,0,0,0-3.81-9.2Z" transform="translate(0 0)" fill="#f9d5ff"/>
            <ellipse id="Elipse_797" data-name="Elipse 797" cx="7.134" cy="7.13" rx="7.134" ry="7.13" transform="translate(15.2 13.572)" fill="#f94f74"/>
            <ellipse id="Elipse_798" data-name="Elipse 798" cx="7.134" cy="7.13" rx="7.134" ry="7.13" transform="translate(39.561 13.572)" fill="#f5b870"/>
            <ellipse id="Elipse_799" data-name="Elipse 799" cx="7.134" cy="7.13" rx="7.134" ry="7.13" transform="translate(63.963 13.572)" fill="#6fb895"/>
            <path id="Caminho_3276" data-name="Caminho 3276" d="M262.013,272.6h-249A13.007,13.007,0,0,1,0,259.588v-75.84H4.053v75.843a8.958,8.958,0,0,0,8.958,8.954h249a8.958,8.958,0,0,0,8.958-8.954V183.748h4.053v75.843A13.023,13.023,0,0,1,262.013,272.6Z" transform="translate(0 -31.533)" fill="#f9d5ff"/>
          </g>
        </g>
      </g>
    </g>
    <g id="Grupo_3876" data-name="Grupo 3876" transform="translate(531.094 439.939) rotate(180)">
      <g id="Grupo_3875" data-name="Grupo 3875" transform="translate(0)">
        <g id="Layer_2-3" data-name="Layer 2">
          <g id="Layer_1-3" data-name="Layer 1">
            <path id="Caminho_3277" data-name="Caminho 3277" d="M107.924,36.52c9.714,17.991,1.707,21.758,18.247,38.962,16.54,17.162,6.038,55.334,10.326,74.9,1.4,6.523,7.439,16.417,10.414,25.786,3.72,11.777-9.76,21.408-19.735,14.184a45.636,45.636,0,0,1-8.883-8.715,12.306,12.306,0,0,0-3.719-3.152c-4.551-2.583-9.146-5.078-15.49-8.668-22.01-12.477-17.5-38.043-27.611-50.52S28.329,112.341,9.689,83.888C-30.656,22.336,65.348-42.5,107.924,36.52Z" transform="translate(75.881 135.45)" fill="url(#linear-gradient)"/>
            <path id="Caminho_3278" data-name="Caminho 3278" d="M.894,83.092S-2.3,36.774,3.388,27.362a19.78,19.78,0,0,1,10.766-8.624l1.969-.657L83.772,1.051a20.876,20.876,0,0,1,13.04,39.663L29.162,57.744l5.951-36.555-2.8,66.5" transform="translate(105.285 219.688)" fill="#c0273c"/>
            <path id="Caminho_3279" data-name="Caminho 3279" d="M32.121,4.64,29.627,13.4A15.11,15.11,0,0,1,.047,8.011L.659,0Z" transform="translate(105.52 302.779)" fill="#fdc068"/>
            <path id="Caminho_3280" data-name="Caminho 3280" d="M48.221,138.471C25.642,99.6,3.544,5.429,0,0L44.983,3.94,91.409,107.826l110.75,17.818L149.738,158l-62.923,1.62a42.618,42.618,0,0,1-38.594-21.145Z" transform="translate(23.653 44.706)" fill="url(#linear-gradient-2)"/>
            <path id="Caminho_3281" data-name="Caminho 3281" d="M5.056.306l52.6,8.755c4.069,2.1,4.988,3.415,7.745,8.4l3.238,5.3-44.983-3.94L1.337,5.646C-1.9,3.371,1.293-1.226,5.056.306Z" transform="translate(0 25.839)" fill="#2b2b2b"/>
            <path id="Caminho_3282" data-name="Caminho 3282" d="M0,9.76C3.632,30.511,17.109,27.534,14.308,42.243s6.651,33.4,21.879,31.129c11.771-1.751,12.646-1.358,17.591-2.1,15.665-2.32,27.523-18.606,20.3-33.622,0,0-5.776-5.385-6.52-10.113S76.663,14.271,74.169,0Z" transform="translate(173.172 191.629)" fill="#c0273c"/>
            <path id="Caminho_3283" data-name="Caminho 3283" d="M33.323,14.142c1.4-1.532,1.183-6.3-4.813-8.23C22.558,3.942,12.1-.086,8.25,0S-.983,4.248.155,10.2l7.263,6.523L30.347,15.1Z" transform="translate(198.178 247.615)" fill="#fff"/>
            <path id="Caminho_3284" data-name="Caminho 3284" d="M.578,0H.491A.607.607,0,0,0,.009.7c1.838,10.463,6.17,15.016,9.627,18.693a30.728,30.728,0,0,1,3.017,3.5.6.6,0,1,0,.962-.7,29.66,29.66,0,0,0-3.15-3.634C7.093,15.016,2.939,10.551,1.145.482A.57.57,0,0,0,.578,0Z" transform="translate(172.594 200.776)" fill="#2b2b2b"/>
            <path id="Caminho_3285" data-name="Caminho 3285" d="M102.055,172.441,32.743,161.5C19,159.7,9.42,149.239,4.038,136.412-12.5,96.836,27.1,1.881,27.317,0l37.85,12.083L57.6,115.181l82.964,11.076Z" transform="translate(101.66 24.92)" fill="url(#linear-gradient-3)"/>
            <path id="Caminho_3286" data-name="Caminho 3286" d="M4.387.272,57.552,21.329a6.253,6.253,0,0,1,3.413,8.011L57.99,36.958,20.14,24.875,1.324,5.7A3.136,3.136,0,0,1,4.387.272Z" transform="translate(108.838)" fill="#2b2b2b"/>
            <path id="Caminho_3287" data-name="Caminho 3287" d="M74.323,25.83C73.361,14.623,66.666-2.32,45.531.264L28.554,2.847C9.3,5.214-.938,22.548.068,34.586Z" transform="translate(173.324 168.073)" fill="url(#linear-gradient-4)"/>
            <path id="Caminho_3288" data-name="Caminho 3288" d="M0,33.928,7.92,0,22.929,11.076,11.9,32.527Z" transform="translate(214.304 163.915)" fill="#2b2b2b"/>
            <path id="Caminho_3289" data-name="Caminho 3289" d="M19.3,0,0,7.22s4.025,4.859,14.352,4.859Z" transform="translate(191.988 253.31)" fill="#2b2b2b"/>
            <path id="Caminho_3290" data-name="Caminho 3290" d="M13.258,0C14.4.263,35.181,6.214,52.99,13.09A30.6,30.6,0,0,1,72.375,45.267c-2.975,25.085-12.033,63.61-12.558,65.361l-1.225,4.027c-.394,1.184-.744,2.408-1.138,3.59-3.676,11.076-15.927,17.336-26.911,13.484A21,21,0,0,1,16.8,108.7c.219-1.4.481-2.758.744-4.159l.788-4.159c.525-2.758,1.138-5.516,1.75-8.274,1.225-5.516,12.558-39.882,12.558-39.882S.569,31.52,0,31.214" transform="translate(198.289 122.719)" fill="#c0273c"/>
            <path id="Caminho_3291" data-name="Caminho 3291" d="M18.054,35.558c-1.707-1.095-3.413-2.19-5.12-3.327L9.609,30c-1.094-.788-2.232-1.532-3.282-2.32A15.287,15.287,0,0,1,19.282.535c1.313.35,2.582.744,3.851,1.138l3.85,1.184c1.444.438,2.888.92,4.332,1.4" transform="translate(180.279 118.42)" fill="#fdc068"/>
            <path id="SVGID-i2" d="M13.761.763,27.37.02A12.747,12.747,0,0,1,40.8,12.1l.744,16.417C42.028,38.063,33.5,49.445,22.2,50.061h0A20.463,20.463,0,0,1,.676,30.709L.02,16A14.5,14.5,0,0,1,13.761.763Z" transform="translate(190.216 281.265)" fill="#fdc068"/>
            <ellipse id="Elipse_800" data-name="Elipse 800" cx="2.319" cy="2.32" rx="2.319" ry="2.32" transform="translate(191.463 303.611)" fill="#2b2b2b"/>
            <path id="Caminho_3292" data-name="Caminho 3292" d="M7.551.177l15.4,5.516a4.686,4.686,0,0,1,3.107,4.071l2.406,30.295c-.962,5.078-22.1,5.866-22.1,5.866L.069,7.007A6.094,6.094,0,0,1,7.551.177Z" transform="translate(202.509 252.695)" fill="#fdc068"/>
            <path id="Caminho_3293" data-name="Caminho 3293" d="M2.98,0a.633.633,0,0,0-.306.088L.793,1.314A2.176,2.176,0,0,0,.574,4.466L3.591,7.793a.592.592,0,1,0,.875-.788L1.449,3.678a.994.994,0,0,1-.263-.7.769.769,0,0,1,.35-.657L3.33,1.137A.623.623,0,0,0,3.508.305.571.571,0,0,0,2.98,0Z" transform="translate(196.227 298.751)" fill="#2b2b2b"/>
            <path id="Caminho_3294" data-name="Caminho 3294" d="M3.5,0H3.285A3.549,3.549,0,0,0,0,3.458a.6.6,0,1,0,1.183.131A2.408,2.408,0,0,1,3.33,1.226a2.8,2.8,0,0,1,2.8,2.451.611.611,0,1,0,1.183-.306A3.927,3.927,0,0,0,3.5,0Z" transform="translate(195.791 291.747)" fill="#2b2b2b"/>
            <path id="Caminho_3295" data-name="Caminho 3295" d="M1.4,8.536l8.752.526L0,0Z" transform="translate(204.809 273.404)" fill="#2b2b2b"/>
            <ellipse id="Elipse_801" data-name="Elipse 801" cx="2.319" cy="2.32" rx="2.319" ry="2.32" transform="translate(204.721 302.954)" fill="#2b2b2b"/>
            <path id="Caminho_3296" data-name="Caminho 3296" d="M25.16,17.206C23.541,11.339,4.376.657,0,0,0,0,.787,18.606,25.16,17.206Z" transform="translate(190.544 314.073)" fill="url(#linear-gradient-5)"/>
            <path id="Caminho_3297" data-name="Caminho 3297" d="M0,73.46S2.932,26.486,2.932,15.585,13.084,7.573,23.41,0c13.346,8.624,15.753,33.841,3.063,41.5-10.72,6.479-7.57,9.806-12.429,19.961A21.767,21.767,0,0,1,0,73.46Z" transform="translate(215.704 257.819)" fill="url(#linear-gradient-6)"/>
            <path id="Caminho_3298" data-name="Caminho 3298" d="M6.765,0A.6.6,0,0,0,6.2.439L.027,21.626a.6.6,0,1,0,1.137.35L7.334.79A.609.609,0,0,0,6.94.045.263.263,0,0,0,6.765,0Z" transform="translate(217.122 196.09)" fill="#2b2b2b"/>
            <path id="Caminho_3299" data-name="Caminho 3299" d="M1.4,0A.651.651,0,0,0,.788.569L0,18.168a.592.592,0,1,0,1.183.044L1.971.613A.585.585,0,0,0,1.4,0Z" transform="translate(138.253 258.126)" fill="#2b2b2b"/>
            <path id="Caminho_3300" data-name="Caminho 3300" d="M7.851,0a.569.569,0,0,0-.525.35L.062,15.5a.587.587,0,1,0,1.05.526L8.375.879A.638.638,0,0,0,7.851,0Z" transform="translate(230.389 159.23)" fill="#2b2b2b"/>
            <path id="Caminho_3301" data-name="Caminho 3301" d="M3.33,0a.614.614,0,0,0-.613.525L.18,25.085A33.057,33.057,0,0,0,26,60.808l42.182,9.281a.584.584,0,0,0,.262-1.139L26.258,59.67A31.819,31.819,0,0,1,1.4,25.26L3.941.7A.592.592,0,0,0,3.417.044.136.136,0,0,0,3.33,0Z" transform="translate(99.087 122.107)" fill="#2b2b2b"/>
            <path id="Caminho_3302" data-name="Caminho 3302" d="M1.448,0A.614.614,0,0,0,.835.526L0,9.325a.6.6,0,1,0,1.183.131l.828-8.8A.592.592,0,0,0,1.49,0Z" transform="translate(157.81 139.486)" fill="#2b2b2b"/>
          </g>
        </g>
      </g>
    </g>
    <g id="Grupo_3878" data-name="Grupo 3878" transform="translate(378.671 164.912)">
      <g id="Grupo_3877" data-name="Grupo 3877" transform="translate(0 0)">
        <g id="Layer_2-4" data-name="Layer 2">
          <g id="Layer_1-4" data-name="Layer 1">
            <rect id="Retângulo_2844" data-name="Retângulo 2844" width="70.662" height="8.735" transform="translate(0 72.37)" fill="#f9d5ff"/>
            <path id="Caminho_3303" data-name="Caminho 3303" d="M90.1,0H166.91a4.868,4.868,0,0,1,3.515,1.317,4.77,4.77,0,0,1,1.5,3.411,2.454,2.454,0,0,1-.079.8l-8.174,70.123a6.357,6.357,0,0,1-6.313,5.53H75.041l8.823-75.65A6.554,6.554,0,0,1,90.1,0Z" transform="translate(-12.878 0.004)" fill="#f9d5ff"/>
            <ellipse id="Elipse_802" data-name="Elipse 802" cx="7.69" cy="6.812" rx="7.69" ry="6.812" transform="matrix(0.727, -0.687, 0.687, 0.727, 103.188, 40.933)" fill="#fff"/>
          </g>
        </g>
      </g>
    </g>
    <g id="Grupo_3880" data-name="Grupo 3880" transform="translate(526.736 245.278)">
      <g id="Grupo_3879" data-name="Grupo 3879" transform="translate(0)">
        <g id="Layer_2-5" data-name="Layer 2">
          <g id="Layer_1-5" data-name="Layer 1">
            <path id="Caminho_3304" data-name="Caminho 3304" d="M765.8,462.544a1.266,1.266,0,1,0-.28,2.516c1.51.068,3.267.231,5.113.313a1.344,1.344,0,0,0,.942-.379,1.6,1.6,0,0,0,.544-.815,1.294,1.294,0,0,0-1.2-1.319C769.149,462.7,767.386,462.7,765.8,462.544Z" transform="translate(-626.334 -317.962)" fill="#2b2b2b"/>
            <path id="Caminho_3305" data-name="Caminho 3305" d="M698.128,438.717c-.4-.44-1.335-.228-1.773.174a1.25,1.25,0,0,0,.174,1.778,60.745,60.745,0,0,0,8.3,6.1,1.16,1.16,0,0,0,1.518-.1l.35-.321a1.389,1.389,0,0,0-.509-1.793,59.208,59.208,0,0,1-8.062-5.84Z" transform="translate(-614.612 -313.833)" fill="#2b2b2b"/>
            <path id="Caminho_3306" data-name="Caminho 3306" d="M688.465,428.314a44.965,44.965,0,0,1-5.52-8.17,1.283,1.283,0,1,0-2.241,1.248,48.329,48.329,0,0,0,5.755,8.6,1.34,1.34,0,0,0,1.925.169A1.323,1.323,0,0,0,688.465,428.314Z" transform="translate(-611.948 -310.573)" fill="#2b2b2b"/>
            <path id="Caminho_3307" data-name="Caminho 3307" d="M677.761,407.166a52.221,52.221,0,0,1-2.261-9.714,1.285,1.285,0,0,0-2.537.4,57.1,57.1,0,0,0,2.323,10.134,1.265,1.265,0,0,0,1.648.748.708.708,0,0,0,.429-.235A1.314,1.314,0,0,0,677.761,407.166Z" transform="translate(-610.647 -306.615)" fill="#2b2b2b"/>
            <path id="Caminho_3308" data-name="Caminho 3308" d="M618.013,312.538c.535-.649.651-1.4.243-1.675l-1.523-1.67c-1.763-1.933-3.609-3.957-5.284-5.966a1.313,1.313,0,1,0-2.085,1.6c1.763,1.933,3.524,4.036,5.284,5.966l1.521,1.667A1.316,1.316,0,0,0,618.013,312.538Z" transform="translate(-599.688 -290.534)" fill="#2b2b2b"/>
            <path id="Caminho_3309" data-name="Caminho 3309" d="M718.606,451.557a1.282,1.282,0,1,0-1.112,2.31c3.055,1.232,6.278,2.472,9.589,3.632a1.139,1.139,0,0,0,1.269-.2c.172-.157.185-.328.369-.654a1.178,1.178,0,0,0-.771-1.552A69.511,69.511,0,0,1,718.606,451.557Z" transform="translate(-618.163 -316.053)" fill="#2b2b2b"/>
            <path id="Caminho_3310" data-name="Caminho 3310" d="M705.334,321.446a46.284,46.284,0,0,1,8.773-4.5.716.716,0,0,0,.429-.236,1.437,1.437,0,0,0,.316-1.419,1.265,1.265,0,0,0-1.648-.748,39.421,39.421,0,0,0-9.293,4.811,1.262,1.262,0,0,0,1.421,2.086Z" transform="translate(-615.865 -292.551)" fill="#2b2b2b"/>
            <path id="Caminho_3311" data-name="Caminho 3311" d="M688.68,338.362c.086-.079.007-.165.263-.241a69.4,69.4,0,0,1,6.145-7.732,1.314,1.314,0,0,0-1.936-1.777,63.267,63.267,0,0,0-6.415,8.142,1.272,1.272,0,0,0,.341,1.785A1.572,1.572,0,0,0,688.68,338.362Z" transform="translate(-612.973 -294.911)" fill="#2b2b2b"/>
            <path id="Caminho_3312" data-name="Caminho 3312" d="M635.679,327.56q-3.773-3.076-7.521-6.658a1.315,1.315,0,0,0-1.772,1.941c2.5,2.387,5.087,4.694,7.6,6.745a1.392,1.392,0,0,0,1.685-.092A1.51,1.51,0,0,0,635.679,327.56Z" transform="translate(-602.587 -293.602)" fill="#2b2b2b"/>
            <path id="Caminho_3313" data-name="Caminho 3313" d="M737.942,315.494c-2.347-2.044-5.92-2.962-10.375-2.911a1.266,1.266,0,0,0,.055,2.531c3.787-.084,6.862.817,8.723,2.329a1.392,1.392,0,0,0,1.685-.094l.086-.079a1.25,1.25,0,0,0-.174-1.777Z" transform="translate(-619.812 -292.228)" fill="#2b2b2b"/>
            <path id="Caminho_3314" data-name="Caminho 3314" d="M741.567,459.015a1.288,1.288,0,0,0-.615,2.5,98.477,98.477,0,0,0,10.087,1.885,1.287,1.287,0,0,0,1.109-.372,1.582,1.582,0,0,0,.373-.826,1.293,1.293,0,0,0-1.116-1.4C748.066,460.316,744.732,459.662,741.567,459.015Z" transform="translate(-622.148 -317.352)" fill="#2b2b2b"/>
            <path id="Caminho_3315" data-name="Caminho 3315" d="M691.389,353.67a1.266,1.266,0,1,0-.28,2.516,53.206,53.206,0,0,0,10.433-.208,2.979,2.979,0,0,0,.77-.39c.35-.321.456-.735.292-.914a1.2,1.2,0,0,0-1.374-1.161A74.192,74.192,0,0,1,691.389,353.67Z" transform="translate(-613.565 -299.25)" fill="#2b2b2b"/>
            <path id="Caminho_3316" data-name="Caminho 3316" d="M739.593,327.914a20.341,20.341,0,0,1-4.656,8.3A1.251,1.251,0,0,0,735.11,338a1.289,1.289,0,0,0,1.685-.094.117.117,0,0,0,.007-.165,23.1,23.1,0,0,0,5.285-9.2,1.285,1.285,0,1,0-2.495-.617Z" transform="translate(-621.234 -294.692)" fill="#2b2b2b"/>
            <path id="Caminho_3317" data-name="Caminho 3317" d="M723.935,345.63a35.34,35.34,0,0,1-8.846,4.24,1.38,1.38,0,0,0-.746,1.652,1.265,1.265,0,0,0,1.648.748,53,53,0,0,0,9.365-4.553l.172-.157a1.178,1.178,0,0,0,.155-1.6A1.288,1.288,0,0,0,723.935,345.63Z" transform="translate(-617.74 -297.864)" fill="#2b2b2b"/>
            <path id="Caminho_3318" data-name="Caminho 3318" d="M655.66,343.6l.351-.322a1.29,1.29,0,0,0-.509-1.793c-2.793-1.473-5.651-3.371-8.508-5.269a1.284,1.284,0,0,0-1.439,2.127,85.64,85.64,0,0,0,8.668,5.445A1.288,1.288,0,0,0,655.66,343.6Z" transform="translate(-605.848 -296.246)" fill="#2b2b2b"/>
            <path id="Caminho_3319" data-name="Caminho 3319" d="M672.98,373a71.327,71.327,0,0,0-.877,10.324,1.441,1.441,0,0,0,1.289,1.24,1.077,1.077,0,0,0,.854-.3,1.213,1.213,0,0,0,.3-1.082,79.848,79.848,0,0,1,.945-9.9,1.263,1.263,0,0,0-2.509-.281Z" transform="translate(-610.501 -302.408)" fill="#2b2b2b"/>
            <path id="Caminho_3320" data-name="Caminho 3320" d="M678.172,348.983c-.285.746-.562,1.323-.841,1.9a64.382,64.382,0,0,1-9.2-3.024,1.251,1.251,0,1,0-.94,2.315c3.143,1.152,6.2,2.212,9.2,3.024a41.6,41.6,0,0,0-2.008,5.393,1.345,1.345,0,0,0,.851,1.64,1.247,1.247,0,0,0,1.19-.284,1.5,1.5,0,0,0,.447-.568,78.053,78.053,0,0,1,3.607-9.279,1.327,1.327,0,0,0-.6-1.712,1.225,1.225,0,0,0-1.711.594Z" transform="translate(-609.513 -298.262)" fill="#2b2b2b"/>
            <path id="Caminho_3321" data-name="Caminho 3321" d="M602.98,294.258a1.177,1.177,0,0,0,.155-1.594c-1.036-1.309-2.062-2.79-3.1-4.1a1.261,1.261,0,1,0-2.08,1.424c1.036,1.309,2.061,2.79,3.1,4.1A1.415,1.415,0,0,0,602.98,294.258Z" transform="translate(-597.739 -288.012)" fill="#2b2b2b"/>
          </g>
        </g>
      </g>
    </g>
    <g id="Grupo_3882" data-name="Grupo 3882" transform="translate(622.217 303.256)">
      <g id="Grupo_3881" data-name="Grupo 3881" transform="translate(0 0)">
        <g id="Layer_2-6" data-name="Layer 2">
          <g id="Layer_1-6" data-name="Layer 1">
            <path id="Caminho_3322" data-name="Caminho 3322" d="M141.206,118.977l31.047,22.967,31.818-30.793a21.352,21.352,0,1,1,30.023,30.368l-44.78,43.6-1.237,1.233a19.587,19.587,0,0,1-27.678-.213,1.462,1.462,0,0,0-.256-.255l-40.6-42.617" transform="translate(-20.515 -18.022)" fill="#ffe0c2"/>
            <path id="Caminho_3323" data-name="Caminho 3323" d="M174.553,192.6h-.595a.787.787,0,1,1,.042-1.574,18.535,18.535,0,0,0,4.862-.51.784.784,0,1,1,.341,1.531A18.787,18.787,0,0,1,174.553,192.6Zm-5.629-.806a.319.319,0,0,1-.213-.043,20.72,20.72,0,0,1-4.862-2.169.774.774,0,1,1,.809-1.319,19.224,19.224,0,0,0,4.478,2,.763.763,0,0,1,.512.979.731.731,0,0,1-.723.548Zm14.884-1.488a.693.693,0,0,1-.682-.426.81.81,0,0,1,.3-1.063,18.738,18.738,0,0,0,3.966-2.85.784.784,0,0,1,1.066,1.149,19.47,19.47,0,0,1-4.307,3.1.806.806,0,0,1-.341.081Zm-23.5-3.786a.687.687,0,0,1-.554-.255l-3.54-3.7a.784.784,0,0,1,1.152-1.063l3.539,3.7a.759.759,0,0,1-.042,1.106.9.9,0,0,1-.554.209Zm31.305-2.765a.69.69,0,0,1-.554-.255.8.8,0,0,1,0-1.106l3.668-3.571a.783.783,0,0,1,1.109,1.105l-3.668,3.571a.752.752,0,0,1-.557.252Zm-38.34-4.636a.688.688,0,0,1-.554-.255l-3.54-3.7a.784.784,0,0,1,1.152-1.063l3.539,3.7a.758.758,0,0,1-.043,1.105.9.9,0,0,1-.556.21Zm45.675-2.51a.69.69,0,0,1-.554-.255.8.8,0,0,1,0-1.106l3.668-3.571a.783.783,0,0,1,1.109,1.106l-3.668,3.571a.825.825,0,0,1-.557.252Zm-52.716-4.895a.688.688,0,0,1-.554-.255l-3.54-3.7a.784.784,0,0,1,1.152-1.063l3.539,3.7a.758.758,0,0,1-.043,1.106,1.007,1.007,0,0,1-.555.213Zm60-2.254a.69.69,0,0,1-.554-.255.8.8,0,0,1,0-1.106l3.668-3.571a.783.783,0,1,1,1.109,1.106l-3.668,3.571a.586.586,0,0,1-.553.255Zm-67.084-5.147a.686.686,0,0,1-.555-.255l-3.54-3.7a.784.784,0,0,1,1.152-1.063l3.539,3.7a.758.758,0,0,1-.043,1.106.81.81,0,0,1-.553.213Zm74.419-1.958a.69.69,0,0,1-.554-.255.8.8,0,0,1,0-1.106l3.668-3.571a.783.783,0,1,1,1.109,1.105l-3.668,3.571a.752.752,0,0,1-.553.259Zm-81.456-5.444a.688.688,0,0,1-.554-.255l-3.54-3.7a.784.784,0,0,1,1.152-1.063l3.539,3.7a.758.758,0,0,1-.043,1.105.9.9,0,0,1-.553.215Zm88.792-1.7a.69.69,0,0,1-.554-.255.794.794,0,0,1,0-1.106l3.668-3.571a.783.783,0,1,1,1.109,1.106l-3.668,3.571a.826.826,0,0,1-.553.257Zm-95.827-5.7a.69.69,0,0,1-.554-.255l-3.539-3.7a.784.784,0,1,1,1.152-1.063l3.539,3.7a.758.758,0,0,1-.043,1.106,1.007,1.007,0,0,1-.554.213Zm103.164-1.446a.689.689,0,0,1-.555-.256.794.794,0,0,1,0-1.105l3.668-3.571a.783.783,0,0,1,1.109,1.106l-3.668,3.571a.671.671,0,0,1-.555.255Zm-54.162-7.06a.69.69,0,0,1-.554-.255.8.8,0,0,1,0-1.106l3.668-3.571a.783.783,0,1,1,1.109,1.106l-3.668,3.571a.69.69,0,0,1-.554.255Zm-3.881-.085a.643.643,0,0,1-.469-.173l-4.095-3.02a.792.792,0,0,1,.939-1.276l4.094,3.02a.8.8,0,0,1,.173,1.106.878.878,0,0,1-.642.343Zm65.293-.043a.748.748,0,0,1-.512-.17.76.76,0,0,1-.085-1.106,18.968,18.968,0,0,0,2.729-4.083.791.791,0,0,1,1.408.723,21.891,21.891,0,0,1-2.943,4.381.843.843,0,0,1-.6.255Zm-73.527-6.04a.644.644,0,0,1-.469-.173l-4.094-3.02a.792.792,0,1,1,.938-1.276l4.094,3.02a.8.8,0,0,1,.173,1.106.877.877,0,0,1-.64.342Zm19.49-.935a.69.69,0,0,1-.554-.255.8.8,0,0,1,0-1.106l3.668-3.571a.783.783,0,1,1,1.109,1.105l-3.668,3.571a.829.829,0,0,1-.552.255Zm58.64-2h-.17a.783.783,0,0,1-.6-.935,19.594,19.594,0,0,0,.554-4.723v-.173a.763.763,0,0,1,.768-.766h0a.763.763,0,0,1,.768.766v.173a22.478,22.478,0,0,1-.6,5.062.733.733,0,0,1-.722.6Zm-86.357-3.148a.64.64,0,0,1-.469-.173l-4.094-3.02a.792.792,0,1,1,.939-1.276l4.094,3.02a.806.806,0,0,1-.469,1.446ZM188.8,126.8a.69.69,0,0,1-.554-.255.8.8,0,0,1,0-1.106l3.668-3.571a.783.783,0,0,1,1.109,1.106l-3.668,3.571a.752.752,0,0,1-.556.257Zm-43.287-4.126a.642.642,0,0,1-.469-.173l-4.094-3.02a.792.792,0,1,1,.938-1.276l4.094,3.02a.8.8,0,0,1,.173,1.106.751.751,0,0,1-.643.345Zm94.506-.893a.819.819,0,0,1-.768-.6,20,20,0,0,0-1.748-4.593.791.791,0,0,1,1.407-.723,23.04,23.04,0,0,1,1.876,4.936.79.79,0,0,1-.554.935.383.383,0,0,1-.214.043Zm-43.884-2.084a.687.687,0,0,1-.554-.255.8.8,0,0,1,0-1.106l3.668-3.571a.783.783,0,1,1,1.109,1.106l-3.668,3.571a.752.752,0,0,1-.556.257Zm39.15-6.848a.84.84,0,0,1-.6-.255c-.256-.255-.512-.552-.725-.806a20.546,20.546,0,0,0-2.942-2.467.8.8,0,1,1,.9-1.319,23.027,23.027,0,0,1,3.156,2.637c.256.255.554.553.809.851a.759.759,0,0,1-.085,1.105.665.665,0,0,1-.511.256Zm-31.815-.3a.689.689,0,0,1-.554-.255.8.8,0,0,1,0-1.106l.809-.766a20.747,20.747,0,0,1,3.2-2.592.767.767,0,1,1,.853,1.276,23.207,23.207,0,0,0-2.985,2.424l-.809.766c-.087.213-.3.255-.513.255Zm23.5-5.487a.834.834,0,0,1-.3-.043,20.665,20.665,0,0,0-4.777-1.191.785.785,0,0,1-.682-.893.769.769,0,0,1,.853-.681,21.021,21.021,0,0,1,5.117,1.276.843.843,0,0,1,.469,1.021.679.679,0,0,1-.683.513Zm-15.054-.085a.785.785,0,0,1-.725-.51.806.806,0,0,1,.47-1.021,21.644,21.644,0,0,1,5.16-1.191.77.77,0,1,1,.173,1.531,20.526,20.526,0,0,0-4.777,1.106.614.614,0,0,1-.3.088Z" transform="translate(-20.725 -17.891)" fill="#2b2b2b"/>
            <path id="Caminho_3324" data-name="Caminho 3324" d="M117.081,144.3l-7.379-7.741a15.424,15.424,0,0,1,20.428-22.967l8.657,6.422Z" transform="translate(-18.096 -18.97)" fill="url(#linear-gradient-7)"/>
            <path id="Caminho_3325" data-name="Caminho 3325" d="M116.919,144.9a.689.689,0,0,1-.554-.255l-3.539-3.7a.784.784,0,0,1,1.151-1.063l3.54,3.7a.76.76,0,0,1-.043,1.106A.709.709,0,0,1,116.919,144.9Zm1.877-2.084a.788.788,0,0,1-.512-.213.757.757,0,0,1-.043-1.106l3.412-3.828a.784.784,0,0,1,1.151,1.063l-3.412,3.828A.843.843,0,0,1,118.8,142.816Zm-8.913-5.316a.687.687,0,0,1-.554-.256l-.341-.34a16.967,16.967,0,0,1-2.772-3.956.791.791,0,0,1,1.407-.723,13.91,13.91,0,0,0,2.517,3.571l.341.34a.758.758,0,0,1-.042,1.105A.673.673,0,0,1,109.882,137.5Zm15.694-2.3a.785.785,0,0,1-.512-.213.757.757,0,0,1-.043-1.106l3.412-3.828a.784.784,0,0,1,1.151,1.063l-3.412,3.828a.84.84,0,0,1-.6.255ZM105.4,128.525a.78.78,0,0,1-.768-.681,16.3,16.3,0,0,1,.213-5.357.786.786,0,0,1,1.535.34,13.715,13.715,0,0,0-.3,2.934,13.308,13.308,0,0,0,.128,1.872.836.836,0,0,1-.683.893Zm27-.936a.785.785,0,0,1-.512-.213.757.757,0,0,1-.043-1.105l3.412-3.828a.784.784,0,0,1,1.151,1.063L133,127.334a.84.84,0,0,1-.6.255Zm5.545-7.488a.644.644,0,0,1-.47-.173l-4.094-3.062a.792.792,0,1,1,.938-1.277l4.094,3.063a.8.8,0,0,1,.17,1.105.754.754,0,0,1-.64.346Zm-30.493-1.4a.69.69,0,0,1-.384-.128.726.726,0,0,1-.256-1.063,15.834,15.834,0,0,1,2.815-3.488c.213-.213.426-.382.639-.6a.785.785,0,1,1,1.023,1.191,7.156,7.156,0,0,0-.6.553,14.846,14.846,0,0,0-2.517,3.147.954.954,0,0,1-.725.386Zm22.262-4.679a.971.971,0,0,1-.469-.127,14.776,14.776,0,0,0-4.35-2.127.78.78,0,1,1,.471-1.484,16.861,16.861,0,0,1,4.819,2.339.8.8,0,0,1,.173,1.106.91.91,0,0,1-.645.3Zm-14.628-1.786a.765.765,0,0,1-.725-.51.8.8,0,0,1,.426-1.021,17.006,17.006,0,0,1,5.246-1.106.75.75,0,0,1,.809.766.773.773,0,0,1-.768.806,16.475,16.475,0,0,0-4.736.979.463.463,0,0,1-.253.088Z" transform="translate(-17.935 -18.808)" fill="#2b2b2b"/>
            <path id="Caminho_3326" data-name="Caminho 3326" d="M169.775,224.509l-62.9,13.825c2.175,50.486-21.921,106.5-21.921,106.5L43.966,338.2l19.447-129c1.834-8.932,7.889-23.18,18.935-26.753,12.88-4.168,39.193-10.463,60.09-10.463S169.775,224.509,169.775,224.509Z" transform="translate(-7.545 -29.515)" fill="#c0273c"/>
            <path id="Caminho_3327" data-name="Caminho 3327" d="M84.764,345.43h-.128l-4.99-.806a.776.776,0,1,1,.256-1.531l4.819.765a1.183,1.183,0,0,1,.384.043.748.748,0,0,1,.426.979l-.725-.3.725.34A.946.946,0,0,1,84.764,345.43ZM74.7,343.815h-.128l-5.033-.806a.777.777,0,1,1,.256-1.532l5.032.807a.77.77,0,0,1,.64.893.744.744,0,0,1-.768.638ZM64.635,342.2h-.128l-5.033-.806a.776.776,0,1,1,.256-1.531l5.033.806a.77.77,0,0,1,.639.893.86.86,0,0,1-.768.638Zm22.091-1.574a.832.832,0,0,1-.3-.043A.783.783,0,0,1,86,339.561c.6-1.531,1.194-3.147,1.791-4.764a.8.8,0,0,1,1.492.553c-.6,1.659-1.237,3.275-1.834,4.806a.789.789,0,0,1-.724.468Zm-32.2-.085H54.4l-5.032-.806a.776.776,0,1,1,.256-1.531l5.032.806a.77.77,0,0,1-.128,1.531ZM44.42,338.923h-.128l-1.408-.213.768-5.189a.778.778,0,0,1,1.536.255l-.555,3.658a.755.755,0,0,1,.512.851.737.737,0,0,1-.725.638Zm45.8-7.869a.548.548,0,0,1-.256-.042.727.727,0,0,1-.469-.979c.554-1.574,1.109-3.232,1.663-4.806a.782.782,0,0,1,1.492.468l-1.663,4.848a.842.842,0,0,1-.767.511Zm-45.035-1.7H45.06a.771.771,0,0,1-.64-.893l.768-5.061a.778.778,0,0,1,1.536.255l-.768,5.061A.782.782,0,0,1,45.187,329.353Zm48.277-8a.541.541,0,0,1-.256-.043.764.764,0,0,1-.512-.979c.512-1.616,1.023-3.275,1.492-4.891a.782.782,0,0,1,1.493.468c-.47,1.616-.982,3.275-1.493,4.892A.731.731,0,0,1,93.464,321.358Zm-46.741-2.127h-.128a.77.77,0,0,1-.639-.893l.768-5.061a.778.778,0,0,1,1.535.255l-.768,5.061a.745.745,0,0,1-.768.638Zm49.684-7.7a.383.383,0,0,1-.213-.043.822.822,0,0,1-.554-.979c.469-1.616.938-3.275,1.365-4.934a.77.77,0,0,1,1.492.383c-.427,1.616-.9,3.275-1.365,4.934a.7.7,0,0,1-.725.639ZM48.258,309.15H48.13a.77.77,0,0,1-.639-.893l.768-5.062a.778.778,0,0,1,1.535.255l-.768,5.062a.745.745,0,0,1-.768.638Zm50.793-7.488a.258.258,0,0,1-.173-.043.728.728,0,0,1-.554-.935c.427-1.659.809-3.318,1.194-4.934a.786.786,0,0,1,1.535.34c-.384,1.659-.809,3.318-1.194,4.976a.819.819,0,0,1-.808.6ZM49.794,299.07h-.128a.77.77,0,0,1-.639-.893l.768-5.061a.778.778,0,0,1,1.535.255l-.766,5.062a.861.861,0,0,1-.769.638Zm51.6-7.358h-.173a.783.783,0,0,1-.6-.935c.341-1.659.725-3.36,1.023-4.976a.786.786,0,0,1,1.535.34c-.341,1.659-.682,3.318-1.023,5.019a.781.781,0,0,1-.765.554Zm-50.111-2.765h-.128a.77.77,0,0,1-.64-.893l.768-5.061a.778.778,0,0,1,1.535.255l-.768,5.061a.744.744,0,0,1-.768.639Zm52.072-7.231h-.128a.77.77,0,0,1-.64-.893c.3-1.7.6-3.36.853-5.019a.778.778,0,0,1,1.535.255c-.256,1.659-.554,3.36-.853,5.062a.788.788,0,0,1-.768.6Zm-50.539-2.85h-.128a.77.77,0,0,1-.64-.893l.768-5.062a.778.778,0,0,1,1.535.255l-.768,5.062a.743.743,0,0,1-.766.639Zm52.115-7.273h-.085a.807.807,0,0,1-.681-.891c.213-1.7.427-3.4.64-5.062a.772.772,0,0,1,1.535.173c-.173,1.659-.384,3.4-.64,5.1a.746.746,0,0,1-.768.677Zm-50.58-2.807h-.128a.771.771,0,0,1-.64-.893l.768-5.061a.778.778,0,0,1,1.536.255l-.765,5.062a.861.861,0,0,1-.769.638Zm51.731-7.316H106a.8.8,0,0,1-.725-.851c.17-1.7.3-3.4.384-5.061a.769.769,0,0,1,1.536.085c-.085,1.659-.214,3.4-.384,5.1a.692.692,0,0,1-.723.724ZM55.85,258.663h-.128a.77.77,0,0,1-.639-.893l.768-5.061a.778.778,0,0,1,1.535.255l-.768,5.066A.744.744,0,0,1,55.85,258.663Zm50.878-7.4h0a.75.75,0,0,1-.768-.806c.043-1.7.085-3.4.085-5.061a.764.764,0,0,1,.768-.766h0a.764.764,0,0,1,.768.766c0,1.7-.043,3.4-.085,5.1a.763.763,0,0,1-.768.766Zm-49.343-2.68h-.128a.77.77,0,0,1-.639-.893l.768-5.062a.778.778,0,0,1,1.535.255l-.768,5.066A.745.745,0,0,1,57.385,248.583Zm49.384-7.528a.763.763,0,0,1-.768-.766c0-.68-.043-1.4-.085-2.084l-.042-.638,3.581-.766a.785.785,0,1,1,.341,1.532l-2.3.51c0,.468.043.979.043,1.446a.791.791,0,0,1-.768.766ZM58.92,238.5h-.128a.77.77,0,0,1-.64-.893l.768-5.061a.778.778,0,0,1,1.535.255l-.766,5.066a.818.818,0,0,1-.769.634Zm55.7-1.319a.819.819,0,0,1-.768-.6.783.783,0,0,1,.6-.935l4.99-1.106a.784.784,0,1,1,.341,1.531l-4.987,1.108Zm9.98-2.169a.819.819,0,0,1-.768-.6.783.783,0,0,1,.6-.936l4.99-1.106a.785.785,0,1,1,.341,1.532l-4.99,1.105Zm10.022-2.211a.818.818,0,0,1-.768-.593.783.783,0,0,1,.6-.935l4.99-1.106a.784.784,0,1,1,.341,1.531l-4.99,1.106Zm9.98-2.212a.819.819,0,0,1-.768-.6.783.783,0,0,1,.6-.936l4.99-1.106a.784.784,0,1,1,.341,1.531l-4.99,1.106Zm9.98-2.169a.819.819,0,0,1-.768-.6.785.785,0,0,1,.6-.936l4.99-1.105a.784.784,0,1,1,.341,1.531l-4.99,1.106Zm-94.165-.043h-.128a.77.77,0,0,1-.64-.893l.768-5.061a.778.778,0,0,1,1.535.255l-.768,5.061a.743.743,0,0,1-.768.641ZM164.6,226.211a.819.819,0,0,1-.768-.6.784.784,0,0,1,.6-.935l4.307-.936c-.085-.552-.213-1.446-.384-2.552a.778.778,0,0,1,1.535-.255c.554,3.615.554,3.615.3,3.913l-.173.213-5.246,1.149ZM61.948,218.3H61.82a.77.77,0,0,1-.64-.893l.768-5.062a.778.778,0,0,1,1.536.255l-.768,5.062a.745.745,0,0,1-.768.638Zm106.276-1.531a.776.776,0,0,1-.768-.638c-.3-1.659-.682-3.361-1.023-4.976a.786.786,0,0,1,1.535-.34c.384,1.659.725,3.36,1.024,5.019a.749.749,0,0,1-.64.893.157.157,0,0,1-.127.043ZM63.565,208.222a.256.256,0,0,1-.17-.043.729.729,0,0,1-.554-.935,44.19,44.19,0,0,1,1.492-4.976.769.769,0,0,1,1.45.51c-.554,1.616-1.066,3.232-1.45,4.806a.737.737,0,0,1-.764.638ZM166,206.775a.819.819,0,0,1-.768-.6c-.427-1.659-.9-3.318-1.322-4.892a.782.782,0,0,1,1.492-.468c.469,1.616.939,3.275,1.365,4.976a.758.758,0,0,1-.554.936.389.389,0,0,1-.21.042ZM66.977,198.61a1,1,0,0,1-.341-.085.779.779,0,0,1-.384-1.021,41.79,41.79,0,0,1,2.474-4.551.775.775,0,0,1,1.322.806,39.424,39.424,0,0,0-2.388,4.423.716.716,0,0,1-.679.427Zm96.168-1.616a.743.743,0,0,1-.725-.51c-.554-1.659-1.152-3.275-1.749-4.764a.784.784,0,0,1,1.45-.6c.6,1.532,1.236,3.147,1.79,4.849a.775.775,0,0,1-.469.979c-.122,0-.208.041-.293.041ZM72.4,189.975a.824.824,0,0,1-.512-.173A.76.76,0,0,1,71.8,188.7a27.935,27.935,0,0,1,3.754-3.7.788.788,0,1,1,.982,1.233,24.81,24.81,0,0,0-3.54,3.488.716.716,0,0,1-.6.258Zm86.872-2.467a.76.76,0,0,1-.683-.425,48.048,48.048,0,0,0-2.431-4.423.774.774,0,1,1,1.321-.806,49.646,49.646,0,0,1,2.517,4.551.825.825,0,0,1-.341,1.063c-.126,0-.255.041-.382.041Zm-78.854-3.786a.781.781,0,0,1-.341-1.488c.6-.256,1.237-.511,1.834-.724.982-.3,2-.638,3.113-.979a.78.78,0,1,1,.469,1.488c-1.066.34-2.09.638-3.07.936a13.851,13.851,0,0,0-1.706.64A.318.318,0,0,1,80.414,183.722Zm9.766-3.02a.819.819,0,0,1-.768-.552.788.788,0,0,1,.554-.979c1.621-.425,3.284-.893,4.99-1.319a.769.769,0,0,1,.384,1.489c-1.663.425-3.326.85-4.947,1.276a.722.722,0,0,1-.213.086Zm63.672-1.829a.744.744,0,0,1-.6-.3,21.908,21.908,0,0,0-3.54-3.4.792.792,0,1,1,.938-1.277,23.635,23.635,0,0,1,3.839,3.658.76.76,0,0,1-.085,1.106.83.83,0,0,1-.554.214Zm-53.778-.681a.818.818,0,0,1-.768-.6.783.783,0,0,1,.6-.935c1.663-.383,3.37-.766,5.033-1.106a.784.784,0,1,1,.341,1.531c-1.663.34-3.326.723-4.99,1.106Zm10.022-2.127a.776.776,0,0,1-.768-.638.749.749,0,0,1,.64-.893c1.706-.34,3.412-.638,5.032-.893a.776.776,0,1,1,.256,1.532c-1.663.3-3.327.595-5.033.893Zm10.108-1.7a.78.78,0,0,1-.768-.681.8.8,0,0,1,.639-.893c1.706-.255,3.455-.468,5.118-.681a.77.77,0,1,1,.17,1.531c-1.663.213-3.369.426-5.075.681,0,.044-.043.044-.086.044Zm10.193-1.191a.783.783,0,0,1-.768-.723.8.8,0,0,1,.725-.851c1.748-.17,3.5-.3,5.118-.382a.767.767,0,1,1,.085,1.531c-1.621.085-3.326.213-5.075.382a.133.133,0,0,1-.086.044Zm15.225-.085a.383.383,0,0,1-.213-.043,11.337,11.337,0,0,0-3.156-.468h-1.621a.763.763,0,0,1-.768-.766.829.829,0,0,1,.768-.806H142.3a13.086,13.086,0,0,1,3.626.51.823.823,0,0,1,.554.979,1.028,1.028,0,0,1-.854.6Z" transform="translate(-7.359 -29.347)" fill="#2b2b2b"/>
            <path id="Caminho_3328" data-name="Caminho 3328" d="M3.323,373.012l63.886,17.821a6.423,6.423,0,0,0,7.847-4.3l2.431-8L37.017,367.7,4.3,366.675A3.231,3.231,0,0,0,3.323,373.012Z" transform="translate(-0.167 -62.926)" fill="#ffe0c2"/>
            <path id="Caminho_3329" data-name="Caminho 3329" d="M67.212,391.525a.256.256,0,0,1-.173-.043c-.085,0-.128-.043-.213-.043l-4.736-1.319a.795.795,0,1,1,.426-1.531l4.736,1.319c.043,0,.128.043.173.043a.728.728,0,0,1,.554.935.775.775,0,0,1-.768.638Zm4.947-.806a.82.82,0,0,1-.682-.383.759.759,0,0,1,.256-1.063,5.856,5.856,0,0,0,2.431-3.1l.173-.51a.782.782,0,0,1,1.492.468l-.173.51a7.376,7.376,0,0,1-3.07,4,1.883,1.883,0,0,1-.427.083Zm-14.8-1.959a.388.388,0,0,1-.213-.042l-4.947-1.36a.795.795,0,1,1,.426-1.531l4.947,1.358a.823.823,0,0,1,.554.979.771.771,0,0,1-.768.6ZM47.509,386a.387.387,0,0,1-.214-.043l-4.947-1.359a.795.795,0,1,1,.427-1.531l4.947,1.361a.823.823,0,0,1,.554.979.808.808,0,0,1-.768.593Zm-9.851-2.722a.389.389,0,0,1-.213-.042L32.5,381.871a.794.794,0,1,1,.424-1.531l4.947,1.361a.823.823,0,0,1,.554.979A.861.861,0,0,1,37.659,383.274Zm38.852-1.488a.318.318,0,0,1-.213-.043.763.763,0,0,1-.512-.979l.554-1.829L74.8,378.51a.769.769,0,0,1,.384-1.489l3.07.806-1.023,3.4a.731.731,0,0,1-.726.556Zm-48.7-1.276a.384.384,0,0,1-.213-.043l-4.948-1.361a.795.795,0,1,1,.427-1.531l4.947,1.361a.823.823,0,0,1,.554.979A.808.808,0,0,1,27.806,380.51Zm-9.852-2.765a.385.385,0,0,1-.213-.043l-4.947-1.361a.795.795,0,1,1,.426-1.531l4.948,1.361a.822.822,0,0,1,.554.979.808.808,0,0,1-.768.6Zm52.115-.51a.385.385,0,0,1-.213-.043l-4.947-1.318a.769.769,0,0,1,.384-1.489L70.24,375.7a.763.763,0,0,1,.554.936.734.734,0,0,1-.725.6ZM8.1,375.022a.384.384,0,0,1-.213-.043l-4.944-1.361A3.911,3.911,0,0,1,0,369.79a6.32,6.32,0,0,1,.085-.893.786.786,0,0,1,1.535.34,2.416,2.416,0,0,0-.043.553,2.366,2.366,0,0,0,1.791,2.339l4.9,1.361a.822.822,0,0,1,.554.979.779.779,0,0,1-.724.554Zm52.115-.468a.383.383,0,0,1-.213-.043l-4.947-1.319a.769.769,0,1,1,.384-1.488l4.947,1.319a.762.762,0,0,1,.554.935.725.725,0,0,1-.725.6Zm-9.894-2.634a.384.384,0,0,1-.213-.043l-4.948-1.319a.769.769,0,1,1,.384-1.488l4.947,1.319a.763.763,0,0,1,.554.935.726.726,0,0,1-.725.6Zm-9.893-2.64a.386.386,0,0,1-.214-.043l-3.5-.935L35.4,368.26a.8.8,0,0,1-.768-.806.773.773,0,0,1,.809-.766l1.578.085,3.581.979a.762.762,0,0,1,.554.935.725.725,0,0,1-.722.593Zm-10.108-1.149h0l-5.16-.173a.787.787,0,0,1,.043-1.574l5.117.17a.8.8,0,0,1,.768.806.763.763,0,0,1-.768.77Zm-10.235-.34h0l-5.16-.173a.787.787,0,0,1,.043-1.574l5.117.173a.8.8,0,0,1,.768.806.763.763,0,0,1-.769.767Zm-10.235-.3h0l-5.16-.173a.787.787,0,0,1,.043-1.574l5.117.173a.8.8,0,0,1,.768.806.763.763,0,0,1-.769.767Z" transform="translate(0 -62.767)" fill="#2b2b2b"/>
            <path id="Caminho_3330" data-name="Caminho 3330" d="M228.278,163.248a27.526,27.526,0,0,0,1.621-8.719c.128-5.019-11.9-12.887-11.259-28.071.512-11.654,13.476-28.582,33.862-27.9l16.419,1.106c17.911.638,31.772,16.59,32.241,28.964h.043c0,.34-.043.681-.043,1.021v.34h-.043c-1.492,20.671-15.95,19.395-10.833,34.153Z" transform="translate(-37.517 -16.91)" fill="#ffe0c2"/>
            <path id="Caminho_3331" data-name="Caminho 3331" d="M284.677,105.011l7.89-1.276s-1.535-1.914-8.231-3.275Z" transform="translate(-48.795 -17.241)" fill="#2b2b2b"/>
            <path id="Caminho_3332" data-name="Caminho 3332" d="M235.419,104.825a.751.751,0,0,1-.639-.34.723.723,0,0,1,.213-1.063,32.291,32.291,0,0,1,4.563-2.592.771.771,0,1,1,.639,1.4,36.749,36.749,0,0,0-4.35,2.467.722.722,0,0,1-.426.126Zm51.177-.3a1.248,1.248,0,0,1-.384-.085l-1.663-.893a.763.763,0,0,1-.341-1.063.747.747,0,0,1,1.066-.34c.6.3,1.194.6,1.748.893a.771.771,0,0,1,.3,1.063.838.838,0,0,1-.725.425Zm-6.44-2.765a.543.543,0,0,1-.256-.043,28.572,28.572,0,0,0-4.862-1.106.776.776,0,1,1,.256-1.531,31.762,31.762,0,0,1,5.117,1.191.764.764,0,0,1,.512.979.893.893,0,0,1-.768.51Zm-35.525-1.276a.82.82,0,0,1-.768-.552.8.8,0,0,1,.512-.979,34.206,34.206,0,0,1,5.118-1.063.794.794,0,1,1,.213,1.574,32.458,32.458,0,0,0-4.9,1.021Zm25.418-.3h-.043l-5.117-.34a.789.789,0,1,1,.128-1.574l5.118.34a.776.776,0,0,1,.725.85.828.828,0,0,1-.81.724Zm-10.193-.681h-.043l-4.606-.3h-.469a.8.8,0,0,1-.768-.806.763.763,0,0,1,.768-.766h.512l4.606.3a.777.777,0,0,1,.725.851.746.746,0,0,1-.725.722Z" transform="translate(-40.265 -16.756)" fill="#2b2b2b"/>
            <path id="Caminho_3333" data-name="Caminho 3333" d="M249.084,106.012l-7.89-4.381s7.079-3.1,12.41-3.02Z" transform="translate(-41.392 -16.923)" fill="#2b2b2b"/>
            <path id="Caminho_3334" data-name="Caminho 3334" d="M259.413,102.818l19.447-6.38,4.222-42.447L259.456,50.5l-8.742,45.424a6.657,6.657,0,0,0,8.7,6.89Z" transform="translate(-43.021 -8.667)" fill="#ffe0c2"/>
            <path id="Caminho_3335" data-name="Caminho 3335" d="M257.16,103.763a7.112,7.112,0,0,1-1.365-.127.776.776,0,1,1,.256-1.531,5.6,5.6,0,0,0,2.9-.213l4.862-1.616a.78.78,0,1,1,.469,1.488l-4.862,1.574a5.777,5.777,0,0,1-2.261.425Zm-5.416-2.807a.809.809,0,0,1-.64-.34,7.451,7.451,0,0,1-1.364-4.3,3.252,3.252,0,0,1,.042-.638V95.6l.085-.426a.8.8,0,0,1,.9-.638.829.829,0,0,1,.639.893l-.085.383v.468a6.065,6.065,0,0,0,1.066,3.4.8.8,0,0,1-.173,1.106.713.713,0,0,1-.466.173Zm17.229-.723a.73.73,0,0,1-.725-.553.763.763,0,0,1,.512-.979l4.862-1.574a.78.78,0,1,1,.47,1.488l-4.862,1.574a.541.541,0,0,1-.256.044Zm9.724-3.19a.73.73,0,0,1-.725-.553,1.051,1.051,0,0,1-.043-.34l.512-5.061a.772.772,0,0,1,1.535.17l-.555,5.572-.469.17a.541.541,0,0,1-.256.041Zm-27.081-5.954h-.128a.83.83,0,0,1-.64-.893l.982-5.019a.778.778,0,0,1,1.535.256l-.982,5.018a.808.808,0,0,1-.768.638Zm28.1-4.168h-.085a.768.768,0,0,1-.682-.851l.512-5.062a.772.772,0,0,1,1.535.173l-.512,5.061A.819.819,0,0,1,279.721,86.92Zm-26.185-5.827h-.128a.829.829,0,0,1-.64-.893l.982-5.019a.8.8,0,0,1,.9-.638.829.829,0,0,1,.639.893l-.982,5.019a.86.86,0,0,1-.768.638ZM280.7,76.755h-.085a.768.768,0,0,1-.683-.851l.512-5.062a.772.772,0,0,1,1.535.173l-.512,5.061a.722.722,0,0,1-.768.679Zm-25.247-5.7h-.128a.829.829,0,0,1-.639-.893l.982-5.019a.8.8,0,0,1,.9-.638.829.829,0,0,1,.639.893l-.982,5.019a.776.776,0,0,1-.768.638Zm26.27-4.466h-.085a.769.769,0,0,1-.683-.851l.512-5.062A.773.773,0,0,1,283,60.85l-.512,5.061a.78.78,0,0,1-.768.679Zm-24.352-5.572h-.128a.83.83,0,0,1-.64-.893l.982-5.018a.8.8,0,0,1,.9-.638.829.829,0,0,1,.64.893l-.982,5.018A.743.743,0,0,1,257.373,61.018Zm25.375-4.593h-.085a.769.769,0,0,1-.685-.851l.128-1.063-2.514-.383a.776.776,0,1,1,.256-1.531l4.008.6-.256,2.552A.95.95,0,0,1,282.748,56.425ZM274.6,53.362h-.128L269.4,52.6a.776.776,0,1,1,.256-1.531l5.075.766a.77.77,0,0,1-.128,1.531ZM264.5,51.874h-.128l-5.075-.766a.776.776,0,1,1,.256-1.531l5.075.766a.749.749,0,0,1,.639.893.775.775,0,0,1-.769.638Z" transform="translate(-42.858 -8.507)" fill="#2b2b2b"/>
            <path id="Caminho_3336" data-name="Caminho 3336" d="M255.116,79.1l11.771,1.744-13.9,9.57Z" transform="translate(-43.415 -13.575)" fill="#2b2b2b"/>
            <path id="Caminho_3337" data-name="Caminho 3337" d="M282.191,34.612,278.906,56.9a14.076,14.076,0,0,1-15.95,11.824l-14.8-2.169a15.878,15.878,0,0,1-13.432-17.991l1.706-11.569.725-4.934.6-3.956A22.485,22.485,0,0,1,262.447,9.093c.256.043.512.043.809.085a22.431,22.431,0,0,1,18.936,25.434Z" transform="translate(-40.253 -1.538)" fill="#ffe0c2"/>
            <path id="Caminho_3338" data-name="Caminho 3338" d="M264.8,70.9h0a12.521,12.521,0,0,1-2.175-.173l-3.028-.425a.776.776,0,1,1,.256-1.532l3.028.426a14.607,14.607,0,0,0,1.919.127.787.787,0,1,1,0,1.574Zm5.032-.935a.766.766,0,0,1-.725-.51.784.784,0,0,1,.469-1.021,13.117,13.117,0,0,0,4.094-2.51.783.783,0,1,1,1.066,1.149,16.285,16.285,0,0,1-4.563,2.807A.645.645,0,0,1,269.833,69.969Zm-15.14-.383h-.128l-5.075-.723a.776.776,0,1,1,.256-1.531l5.075.723a.749.749,0,0,1,.639.893A.819.819,0,0,1,254.693,69.586Zm-10.064-1.872a.547.547,0,0,1-.256-.042,16.962,16.962,0,0,1-4.649-2.678.788.788,0,1,1,.982-1.233,16.454,16.454,0,0,0,4.179,2.424.844.844,0,0,1,.469,1.021.766.766,0,0,1-.725.509ZM277.3,63.292a.8.8,0,0,1-.341-.085.786.786,0,0,1-.341-1.063,12.63,12.63,0,0,0,1.322-4.126l.085-.51a.778.778,0,0,1,1.535.255l-.085.468a14.516,14.516,0,0,1-1.492,4.593.709.709,0,0,1-.682.468Zm-40.473-1.914a.751.751,0,0,1-.639-.34,17.232,17.232,0,0,1-2.132-4.891.791.791,0,0,1,.554-.936.76.76,0,0,1,.938.553,14.085,14.085,0,0,0,1.919,4.423.759.759,0,0,1-.256,1.063.521.521,0,0,1-.384.128Zm-2.432-9.74h-.043a.8.8,0,0,1-.725-.851c.042-.382.085-.766.128-1.105l.6-4a.778.778,0,0,1,1.535.255l-.6,4q-.064.51-.128,1.021a.722.722,0,0,1-.768.68Zm1.45-10.08h-.128a.749.749,0,0,1-.64-.893L235.8,35.6a.778.778,0,0,1,1.535.256l-.725,5.061a.781.781,0,0,1-.766.639Zm1.5-10.123h-.128a.77.77,0,0,1-.64-.893l.214-1.319a28.775,28.775,0,0,1,.9-3.786.784.784,0,0,1,.982-.51.763.763,0,0,1,.512.979,25.051,25.051,0,0,0-.853,3.53l-.214,1.319A.746.746,0,0,1,237.338,31.435Zm3.2-9.612a.691.691,0,0,1-.383-.127.767.767,0,0,1-.256-1.063,23.31,23.31,0,0,1,3.241-4.168.783.783,0,1,1,1.109,1.106,22.3,22.3,0,0,0-3.028,3.913.893.893,0,0,1-.685.34Z" transform="translate(-40.092 -2.784)" fill="#2b2b2b"/>
            <path id="Caminho_3339" data-name="Caminho 3339" d="M238.737,40.623a2.529,2.529,0,0,1-1.919,1.106l.725-4.934a3.594,3.594,0,0,1,.554.3,2.522,2.522,0,0,1,.639,3.53Z" transform="translate(-40.641 -6.315)" fill="#2b2b2b"/>
            <path id="Caminho_3340" data-name="Caminho 3340" d="M242.135,48.2a.818.818,0,0,1-.512-.173l-1.964-1.616a2.554,2.554,0,0,1-.682-1.872,2.454,2.454,0,0,1,.853-1.744l3.71-3.275a.785.785,0,1,1,1.023,1.191l-3.709,3.278a.9.9,0,0,0-.3.638,1.15,1.15,0,0,0,.256.723l1.833,1.488a.8.8,0,0,1,.128,1.105A.939.939,0,0,1,242.135,48.2Z" transform="translate(-41.011 -6.751)" fill="#2b2b2b"/>
            <path id="Caminho_3341" data-name="Caminho 3341" d="M241.579,61.284a3.039,3.039,0,0,1-1.237-.213,5.038,5.038,0,0,1-2.815-2.68.784.784,0,0,1,1.45-.6,3.288,3.288,0,0,0,1.834,1.786,4.07,4.07,0,0,0,3.369-.851.761.761,0,0,1,1.066.213.8.8,0,0,1-.213,1.063,6.207,6.207,0,0,1-3.455,1.277Z" transform="translate(-40.752 -9.836)" fill="#2b2b2b"/>
            <ellipse id="Elipse_803" data-name="Elipse 803" cx="2.559" cy="2.552" rx="2.559" ry="2.552" transform="translate(207.863 32.522)" fill="#2b2b2b"/>
            <path id="Caminho_3342" data-name="Caminho 3342" d="M273.022,193.238a43.374,43.374,0,0,1-33.9,30.453c-16.206,2.935-34.713,6.252-39.406,6.933-2.175.3-4.39.638-6.568.893l-6.61.851c-2.217.3-4.393.51-6.61.766s-4.393.51-6.61.723l-6.61.638c-2.217.213-4.435.425-6.653.6l-6.653.51-3.326.255-3.326.213,25.417-32.707.173,9.017.085,4.509.043,4.509c.043,6.04-1.877-4.168,0,1.574l2.9,8.591,2.815,8.634c1.877,5.742,3.668,11.526,5.459,17.31,3.539,11.569,6.951,23.223,10.15,34.962,1.578,5.869,3.113,11.781,4.606,17.693.725,2.977,1.45,5.954,2.132,8.932l.982,4.508.512,2.255.469,2.254-37.828,17.056L111.687,209.23A30.583,30.583,0,0,1,137.4,176.14l71.523,3.444,63.029-2.082,1.066,15.737Z" transform="translate(-19.143 -30.228)" fill="#c0273c"/>
            <path id="Caminho_3343" data-name="Caminho 3343" d="M165.565,344.316a.781.781,0,0,1-.341-1.489l4.649-2.084a.771.771,0,1,1,.639,1.4l-4.648,2.084A.4.4,0,0,1,165.565,344.316Zm-2.516-3.19a.766.766,0,0,1-.725-.51l-1.834-4.764a.784.784,0,0,1,1.45-.6l1.834,4.764a.8.8,0,0,1-.427,1.021.614.614,0,0,1-.3.085Zm11.813-1.021a.781.781,0,0,1-.341-1.488l4.648-2.084a.771.771,0,1,1,.64,1.4l-4.649,2.084A.359.359,0,0,1,174.861,340.106Zm9.34-4.168a.781.781,0,0,1-.341-1.488l4.648-2.084a.771.771,0,1,1,.64,1.4l-4.648,2.084a.619.619,0,0,1-.3.085Zm9.34-4.211a.781.781,0,0,1-.341-1.488l4.649-2.084a.771.771,0,1,1,.639,1.4l-4.648,2.084a.792.792,0,0,1-.3.085Zm-34.2-.129a.765.765,0,0,1-.725-.51l-1.834-4.763a.784.784,0,0,1,1.45-.6l1.834,4.764a.8.8,0,0,1-.426,1.021A.362.362,0,0,1,159.339,331.6Zm42.86-4.423a.776.776,0,0,1-.768-.638l-.341-1.7-.725-3.275a.786.786,0,0,1,1.535-.34l1.109,4.976a.783.783,0,0,1-.6.936.468.468,0,0,1-.217.043Zm-46.571-5.1a.765.765,0,0,1-.725-.51L153.07,316.8a.784.784,0,0,1,1.45-.6l1.834,4.764a.8.8,0,0,1-.426,1.021.361.361,0,0,1-.3.086Zm44.4-4.848a.819.819,0,0,1-.768-.6c-.384-1.659-.768-3.317-1.194-4.976a.786.786,0,0,1,1.535-.34c.384,1.659.809,3.317,1.194,4.976a.784.784,0,0,1-.6.936Zm-48.107-4.634a.765.765,0,0,1-.725-.51l-1.834-4.764a.784.784,0,0,1,1.45-.6l1.834,4.763a.8.8,0,0,1-.426,1.021A.622.622,0,0,1,151.917,312.589Zm45.675-5.316a.818.818,0,0,1-.768-.6c-.427-1.659-.853-3.275-1.28-4.934a.771.771,0,0,1,1.493-.383c.426,1.659.853,3.318,1.279,4.934a.758.758,0,0,1-.554.936c-.043.041-.085.041-.17.041Zm-49.384-4.211a.766.766,0,0,1-.725-.51l-1.834-4.767a.784.784,0,0,1,1.45-.6l1.834,4.764a.8.8,0,0,1-.427,1.021.617.617,0,0,1-.3.086Zm46.827-5.657a.771.771,0,0,1-.768-.6c-.426-1.659-.853-3.275-1.322-4.934a.771.771,0,1,1,1.493-.383c.426,1.659.9,3.275,1.322,4.934a.729.729,0,0,1-.554.936c-.045.04-.088.04-.173.04Zm-50.494-3.87a.765.765,0,0,1-.725-.51l-1.834-4.764a.784.784,0,1,1,1.45-.6l1.834,4.763a.8.8,0,0,1-.427,1.021.463.463,0,0,1-.3.083Zm47.851-6a.82.82,0,0,1-.768-.553c-.469-1.658-.9-3.275-1.364-4.891a.8.8,0,0,1,1.535-.425c.469,1.658.938,3.275,1.365,4.934a.788.788,0,0,1-.554.979.463.463,0,0,0-.215-.046Zm-51.56-3.53a.767.767,0,0,1-.725-.51l-1.834-4.764a.784.784,0,0,1,1.45-.6l1.834,4.764a.8.8,0,0,1-.427,1.021.459.459,0,0,1-.3.083Zm48.748-6.295a.82.82,0,0,1-.768-.553c-.469-1.616-.938-3.275-1.407-4.891a.782.782,0,0,1,1.492-.468c.469,1.616.938,3.275,1.407,4.891a.787.787,0,0,1-.554.979c-.005.04-.088.04-.176.04Zm-52.456-3.19a.766.766,0,0,1-.725-.51l-1.834-4.764a.784.784,0,1,1,1.45-.6l1.834,4.763a.8.8,0,0,1-.426,1.021,1.09,1.09,0,0,1-.3.084Zm49.593-6.594a.819.819,0,0,1-.768-.553c-.469-1.616-.982-3.275-1.45-4.891a.782.782,0,0,1,1.492-.468c.512,1.616.982,3.275,1.45,4.891a.8.8,0,0,1-.512.979.321.321,0,0,1-.213.042Zm-53.311-2.934a.765.765,0,0,1-.725-.51l-1.834-4.764a.784.784,0,0,1,1.45-.6l1.834,4.764a.8.8,0,0,1-.426,1.021.463.463,0,0,1-.3.085Zm50.365-6.848a.82.82,0,0,1-.768-.553l-1.492-4.891a.782.782,0,0,1,1.492-.468l1.493,4.891a.8.8,0,0,1-.512.979.321.321,0,0,1-.21.041Zm-54.076-2.68a.765.765,0,0,1-.725-.51l-1.834-4.764a.784.784,0,0,1,1.45-.6l1.834,4.763a.8.8,0,0,1-.426,1.021.463.463,0,0,1-.3.085Zm51.049-7.06a.73.73,0,0,1-.725-.553L178.484,243a.782.782,0,0,1,1.492-.468c.512,1.616,1.024,3.232,1.535,4.891a.763.763,0,0,1-.512.979Zm-54.759-2.424a.765.765,0,0,1-.725-.51l-1.834-4.763a.784.784,0,0,1,1.45-.6l1.834,4.764a.8.8,0,0,1-.426,1.021,1.076,1.076,0,0,1-.3.085Zm51.646-7.316a.73.73,0,0,1-.725-.552l-1.578-4.849a.782.782,0,0,1,1.492-.468l1.58,4.851a.765.765,0,0,1-.512.979.548.548,0,0,1-.254.039Zm-55.356-2.211a.766.766,0,0,1-.725-.51l-1.834-4.764a.784.784,0,0,1,1.45-.6L123,235.349a.8.8,0,0,1-.427,1.021.459.459,0,0,1-.3.085Zm58-3.7a.78.78,0,0,1-.768-.68.768.768,0,0,1,.682-.851c.554-.043,1.066-.127,1.578-.17,1.152-.128,2.3-.255,3.5-.383a.77.77,0,1,1,.17,1.531c-1.152.128-2.346.255-3.5.383-.512.043-1.066.127-1.578.173Zm10.15-1.233a.78.78,0,0,1-.768-.681.835.835,0,0,1,.682-.893l2.559-.34c.853-.085,1.663-.213,2.516-.34a.794.794,0,1,1,.213,1.573c-.853.128-1.706.213-2.516.34l-2.559.34Zm10.155-1.362a.745.745,0,0,1-.768-.638.77.77,0,0,1,.64-.893c1.194-.173,2.9-.468,5.032-.851a.776.776,0,1,1,.256,1.531c-2.175.383-3.881.638-5.075.851Zm10.108-1.744a.77.77,0,0,1-.128-1.531c1.578-.3,3.284-.6,5.033-.893a.776.776,0,1,1,.256,1.531c-1.791.3-3.455.6-5.033.893Zm-92.119-1.488a.766.766,0,0,1-.725-.51l-1.834-4.763a.784.784,0,0,1,1.45-.6l1.834,4.764a.8.8,0,0,1-.427,1.021.463.463,0,0,1-.3.085Zm102.182-.3a.776.776,0,0,1-.768-.638.749.749,0,0,1,.64-.893l5.032-.893a.776.776,0,1,1,.256,1.531l-5.032.893Zm10.108-1.786a.776.776,0,0,1-.768-.638.749.749,0,0,1,.64-.893l5.033-.893a.776.776,0,1,1,.256,1.531l-5.033.893Zm10.064-1.871a.819.819,0,0,1-.768-.6.784.784,0,0,1,.6-.936,47.839,47.839,0,0,0,4.819-1.4.767.767,0,1,1,.512,1.446,41.65,41.65,0,0,1-4.99,1.446.321.321,0,0,1-.17.041Zm9.6-3.445a.761.761,0,0,1-.682-.426.786.786,0,0,1,.341-1.063,37.023,37.023,0,0,0,4.349-2.511.761.761,0,0,1,1.066.213.8.8,0,0,1-.213,1.063,47.659,47.659,0,0,1-4.521,2.592.354.354,0,0,1-.34.131Zm-135.66-2.084a.767.767,0,0,1-.725-.51L112.3,212.17a.784.784,0,0,1,1.45-.6l1.834,4.764a.8.8,0,0,1-.426,1.021,1.093,1.093,0,0,1-.3.084Zm144.19-3.488a.746.746,0,0,1-.6-.3.8.8,0,0,1,.085-1.105,39.985,39.985,0,0,0,3.668-3.445.784.784,0,0,1,1.151,1.063,42.826,42.826,0,0,1-3.8,3.571.578.578,0,0,1-.512.212Zm-147.6-6.124a.729.729,0,0,1-.768-.724c-.043-.638-.043-1.319-.043-1.958a28.147,28.147,0,0,1,.173-3.275.772.772,0,0,1,1.535.173,25.311,25.311,0,0,0-.17,3.1c0,.638,0,1.233.043,1.872a.739.739,0,0,1-.725.806Zm154.639-1.276a.64.64,0,0,1-.469-.173.8.8,0,0,1-.173-1.106,39.443,39.443,0,0,0,2.73-4.211.783.783,0,0,1,1.365.766,42.394,42.394,0,0,1-2.857,4.338.617.617,0,0,1-.595.384ZM112.512,197.75a.386.386,0,0,1-.214-.043.822.822,0,0,1-.554-.979,33.757,33.757,0,0,1,1.834-4.891.772.772,0,0,1,1.407.638,30.442,30.442,0,0,0-1.748,4.636.726.726,0,0,1-.725.639Zm158.648-.043a.734.734,0,0,1-.3-.042.8.8,0,0,1-.427-1.021,44.341,44.341,0,0,0,1.706-4.721.782.782,0,0,1,1.492.468,39.286,39.286,0,0,1-1.748,4.891.826.826,0,0,1-.724.425Zm-154.3-9.144a.719.719,0,0,1-.426-.127.849.849,0,0,1-.213-1.106,33.492,33.492,0,0,1,3.326-4.04.783.783,0,0,1,1.109,1.105,34.591,34.591,0,0,0-3.2,3.828A.636.636,0,0,1,116.862,188.563Zm7.122-7.273a.806.806,0,0,1-.469-1.446,29.892,29.892,0,0,1,4.478-2.722.79.79,0,0,1,.725,1.4,29.265,29.265,0,0,0-4.265,2.592A.643.643,0,0,1,123.984,181.29Zm9.126-4.508a.819.819,0,0,1-.768-.553.8.8,0,0,1,.512-.979,28.93,28.93,0,0,1,4.222-.979l.9-.085a.771.771,0,1,1,.173,1.532l-.853.085a27.332,27.332,0,0,0-4.009.936.438.438,0,0,1-.172.044Zm10.108-1.616a.781.781,0,0,1-.768-.681.768.768,0,0,1,.683-.85l5.075-.553a.77.77,0,1,1,.173,1.531l-5.075.553Zm10.15-1.149a.78.78,0,0,1-.768-.68.768.768,0,0,1,.682-.851l5.075-.553a.77.77,0,1,1,.17,1.531l-5.075.553Zm10.193-1.148a.78.78,0,0,1-.768-.681.768.768,0,0,1,.682-.851l5.075-.552a.77.77,0,1,1,.173,1.531l-5.075.553Zm10.15-1.106a.78.78,0,0,1-.768-.681.768.768,0,0,1,.682-.85l4.736-.51a.77.77,0,1,1,.173,1.531l-4.733.51Z" transform="translate(-18.986 -29.126)" fill="#2b2b2b"/>
            <path id="Caminho_3344" data-name="Caminho 3344" d="M142.187,391.125l62.819-21.352a6.39,6.39,0,0,0,4.052-7.953l-3.071-7.826-38.979,13.738L139.456,385.34A3.22,3.22,0,0,0,142.187,391.125Z" transform="translate(-23.67 -60.75)" fill="#ffe0c2"/>
            <path id="Caminho_3345" data-name="Caminho 3345" d="M141.013,391.9a3.948,3.948,0,0,1-3.369-2,.783.783,0,0,1,1.365-.766,2.324,2.324,0,0,0,2,1.234,2.034,2.034,0,0,0,.853-.173l4.862-1.658a.777.777,0,0,1,.982.468.794.794,0,0,1-.469.979l-4.862,1.659A4.057,4.057,0,0,1,141.013,391.9Zm10.79-3.488a.744.744,0,0,1-.725-.51.775.775,0,0,1,.469-.979l4.862-1.659a.779.779,0,0,1,.982.468.794.794,0,0,1-.469.979l-4.862,1.658a.54.54,0,0,1-.257.043Zm-12.325-2.552a.747.747,0,0,1-.738-.926.76.76,0,0,1,.354-.478l4.307-2.765a.774.774,0,1,1,.809,1.319l-4.307,2.765A1.264,1.264,0,0,1,139.478,385.86Zm22.006-.723a.744.744,0,0,1-.725-.51.775.775,0,0,1,.469-.979l4.862-1.658a.777.777,0,0,1,.982.468.794.794,0,0,1-.469.979l-4.862,1.659c-.086,0-.172.043-.257.043Zm9.724-3.318a.743.743,0,0,1-.725-.51.775.775,0,0,1,.469-.979l4.862-1.659a.779.779,0,0,1,.982.468.794.794,0,0,1-.469.979l-4.862,1.659A.758.758,0,0,1,171.208,381.819Zm-23.115-1.488a.747.747,0,0,1-.738-.926.759.759,0,0,1,.354-.477l4.307-2.765a.774.774,0,1,1,.809,1.319l-4.307,2.765A1.265,1.265,0,0,1,148.093,380.331Zm32.8-1.786a.743.743,0,0,1-.725-.51.775.775,0,0,1,.469-.979l4.862-1.659a.779.779,0,0,1,.982.468.793.793,0,0,1-.469.979l-4.862,1.659c-.086,0-.171.042-.256.042Zm9.681-3.317a.743.743,0,0,1-.725-.51.775.775,0,0,1,.469-.979l4.862-1.658a.767.767,0,1,1,.512,1.446l-4.862,1.659a.542.542,0,0,1-.256.043Zm-33.862-.383a.747.747,0,0,1-.738-.926.76.76,0,0,1,.354-.477l4.307-2.765a.772.772,0,0,1,1.066.255.758.758,0,0,1-.256,1.063l-4.307,2.765a1.264,1.264,0,0,1-.426.084Zm43.542-2.892a.743.743,0,0,1-.725-.51.775.775,0,0,1,.469-.979l4.819-1.659a.795.795,0,1,1,.555,1.489l-.173.042-4.691,1.574a.542.542,0,0,1-.254.043Zm-34.928-2.637a.746.746,0,0,1-.738-.926.76.76,0,0,1,.354-.477l1.748-1.106,3.028-1.063a.779.779,0,0,1,.982.468.793.793,0,0,1-.469.979l-2.943,1.021-1.535.979a.721.721,0,0,1-.427.124Zm43.415-2.424a.806.806,0,0,1-.683-1.106,5.277,5.277,0,0,0,.469-2.3,5.591,5.591,0,0,0-.256-1.659l-.173-.425a.784.784,0,0,1,1.45-.6l.213.51a7.162,7.162,0,0,1,.341,2.127,7,7,0,0,1-.639,2.938.809.809,0,0,1-.722.507Zm-33.948-1.361a.744.744,0,0,1-.725-.51.775.775,0,0,1,.469-.979l4.819-1.7a.779.779,0,0,1,.982.468.794.794,0,0,1-.469.979l-4.819,1.7a.54.54,0,0,1-.257.043Zm9.639-3.4a.744.744,0,0,1-.725-.51.775.775,0,0,1,.47-.979l4.819-1.7a.767.767,0,1,1,.512,1.446l-4.819,1.7c-.043.043-.128.043-.256.043Zm9.681-3.4a.744.744,0,0,1-.725-.51.775.775,0,0,1,.47-.979l4.819-1.7a.779.779,0,0,1,.982.468.793.793,0,0,1-.469.979l-4.819,1.7a.543.543,0,0,1-.258.043Zm12.837-1.531a.767.767,0,0,1-.725-.51l-.768-1.914-1.45.51a.777.777,0,0,1-.982-.468.793.793,0,0,1,.469-.979l2.9-1.021,1.279,3.317a.8.8,0,0,1-.427,1.021c-.081,0-.212.043-.3.043Z" transform="translate(-23.606 -60.547)" fill="#2b2b2b"/>
            <path id="Caminho_3346" data-name="Caminho 3346" d="M268.716,9.536,258.951,8.43a17.562,17.562,0,0,0-19.407,15.438h0s15.694,1.744,17.571,1.958h0a6.121,6.121,0,0,1,5.416,6.763l-1.109,9.867,5.331.6.17-1.574a1.243,1.243,0,0,1,2.346-.426L279.717,61.17l3.966-27.986.473-4.337a17.381,17.381,0,0,0-15.44-19.311Z" transform="translate(-41.108 -1.428)" fill="#2b2b2b"/>
            <ellipse id="Elipse_804" data-name="Elipse 804" cx="8.444" cy="8.422" rx="8.444" ry="8.422" transform="translate(225.604 30.99)" fill="#ffe0c2"/>
            <path id="Caminho_3347" data-name="Caminho 3347" d="M239.017,22.7l-4.563-.51A11.137,11.137,0,0,1,224.6,9.893h0A11.152,11.152,0,0,1,236.927.07l.6.085a11.183,11.183,0,0,1,9.6,8.336l1.578,6.167Z" transform="translate(-38.532 -0.001)" fill="#2b2b2b"/>
            <path id="Caminho_3348" data-name="Caminho 3348" d="M278.926,49.883a.766.766,0,0,1-.427-1.4l5.2-3.445a.767.767,0,1,1,.853,1.276l-5.2,3.446A.72.72,0,0,1,278.926,49.883Z" transform="translate(-47.735 -7.707)" fill="#2b2b2b"/>
            <path id="Caminho_3349" data-name="Caminho 3349" d="M218.483,169.917a.814.814,0,0,1-.554-.213.8.8,0,0,1,0-1.106c4.137-4.04,4.435-7.273,1.194-14.248a.773.773,0,0,1,1.407-.638c3.071,6.635,3.668,10.973-1.535,16.035a.682.682,0,0,1-.512.17Z" transform="translate(-37.361 -26.302)" fill="#2b2b2b"/>
            <path id="Caminho_3350" data-name="Caminho 3350" d="M179.358,153.1a.687.687,0,0,1-.554-.255.758.758,0,0,1,.043-1.105l3.028-2.85a.783.783,0,1,1,1.066,1.148l-3.028,2.85A.707.707,0,0,1,179.358,153.1Z" transform="translate(-30.647 -25.515)" fill="#2b2b2b"/>
            <path id="Caminho_3351" data-name="Caminho 3351" d="M210.727,160.764l38.553,3.02,10.534-42.957a21.4,21.4,0,0,1,41.666,9.825L286.767,191.3l-.426,1.7a19.594,19.594,0,0,1-23.584,14.5,1.006,1.006,0,0,1-.341-.085l-57.1-14.546" transform="translate(-35.234 -17.914)" fill="#ffe0c2"/>
            <path id="Caminho_3352" data-name="Caminho 3352" d="M200.8,204.37,190.4,201.733a15.427,15.427,0,0,1,5.033-30.326l10.747.851Z" transform="translate(-30.681 -29.408)" fill="#ffe0c2"/>
            <path id="Caminho_3353" data-name="Caminho 3353" d="M267.959,208.673a.764.764,0,0,1-.768-.766.83.83,0,0,1,.768-.806,18.953,18.953,0,0,0,4.862-.723.795.795,0,1,1,.426,1.531,22.378,22.378,0,0,1-5.288.766Zm-5.075-.6a.54.54,0,0,1-.256-.043c-.043,0-.043,0-.085-.043l-4.819-1.233a.769.769,0,1,1,.384-1.488l5.033,1.319a.727.727,0,0,1,.469.979.744.744,0,0,1-.725.509Zm14.8-2.169a.819.819,0,0,1-.682-.383.8.8,0,0,1,.256-1.063,19.1,19.1,0,0,0,3.838-3.02.783.783,0,0,1,1.109,1.105,19.457,19.457,0,0,1-4.179,3.275.8.8,0,0,1-.341.085Zm-24.735-.382a.383.383,0,0,1-.213-.043l-4.948-1.276a.769.769,0,1,1,.384-1.488l4.947,1.276a.745.745,0,0,1,.554.935.669.669,0,0,1-.725.6Zm-9.894-2.509a.386.386,0,0,1-.214-.043l-4.947-1.276a.769.769,0,0,1,.384-1.489l4.947,1.276a.749.749,0,0,1,.554.936.7.7,0,0,1-.725.6Zm-9.934-2.51a.385.385,0,0,1-.213-.043l-4.947-1.276a.769.769,0,1,1,.384-1.488l4.947,1.276a.745.745,0,0,1,.554.935.7.7,0,0,1-.728.6Zm51.646-1.829a1.244,1.244,0,0,1-.384-.085.771.771,0,0,1-.3-1.063,16.893,16.893,0,0,0,1.79-4.551.77.77,0,0,1,1.493.383A20.563,20.563,0,0,1,285.4,198.3a.662.662,0,0,1-.64.382Zm-61.54-.723a.385.385,0,0,1-.213-.043l-4.947-1.276a.745.745,0,0,1-.554-.935.73.73,0,0,1,.939-.553l4.947,1.276a.745.745,0,0,1,.554.935.726.726,0,0,1-.728.6Zm-9.934-2.509a.385.385,0,0,1-.213-.043l-4.947-1.276a.749.749,0,0,1-.554-.936.731.731,0,0,1,.939-.553l4.947,1.276a.745.745,0,0,1,.554.936.733.733,0,0,1-.73.6Zm74.59-6.423a.255.255,0,0,1-.17-.043.783.783,0,0,1-.6-.935l1.194-4.976a.786.786,0,0,1,1.535.34l-1.194,4.976a.849.849,0,0,1-.773.638Zm2.388-9.953a.256.256,0,0,1-.17-.043.783.783,0,0,1-.6-.935l1.194-4.976a.787.787,0,0,1,1.536.34l-1.194,4.976a.767.767,0,0,1-.773.638Zm2.431-9.908a.258.258,0,0,1-.173-.043.783.783,0,0,1-.6-.935l1.194-4.976a.786.786,0,0,1,1.535.34l-1.194,4.976a.85.85,0,0,1-.771.635Zm-45.889-4.976h-.043l-5.117-.382a.789.789,0,1,1,.128-1.574l5.118.382a.8.8,0,0,1,.725.851.793.793,0,0,1-.816.721Zm-10.193-.806h-.043L231.459,163a.789.789,0,1,1,.128-1.574l5.118.382a.8.8,0,0,1,.725.851.793.793,0,0,1-.816.719Zm-10.193-.766h-.043l-5.117-.382a.789.789,0,1,1,.128-1.574l5.118.382a.8.8,0,0,1,.725.851.9.9,0,0,1-.816.719Zm23.8-.382a.256.256,0,0,1-.173-.043.728.728,0,0,1-.555-.936l1.237-4.976a.77.77,0,0,1,1.493.382l-1.237,4.976a.861.861,0,0,1-.769.593Zm-33.99-.426h-.043l-5.117-.382a.789.789,0,1,1,.128-1.574l5.118.382a.8.8,0,0,1,.719.844.9.9,0,0,1-.809.725Zm78.855-2.552a.258.258,0,0,1-.173-.043.783.783,0,0,1-.6-.935l1.194-4.976a.786.786,0,0,1,1.535.34l-1.194,4.976a.808.808,0,0,1-.77.634Zm-42.434-6.932a.258.258,0,0,1-.173-.043.728.728,0,0,1-.554-.936l1.237-4.976a.77.77,0,0,1,1.492.382l-1.237,4.976a.862.862,0,0,1-.77.592Zm44.821-2.977a.258.258,0,0,1-.173-.043.784.784,0,0,1-.6-.935l1.194-4.976a.786.786,0,0,1,1.535.34l-1.194,4.976a.776.776,0,0,1-.768.634Zm-42.391-6.975a.258.258,0,0,1-.173-.043.729.729,0,0,1-.555-.935l1.237-4.976a.77.77,0,0,1,1.493.382l-1.237,4.976a.808.808,0,0,1-.768.592Zm44.821-2.977a.256.256,0,0,1-.17-.043.784.784,0,0,1-.6-.935l1.194-4.976a.786.786,0,0,1,1.535.34l-1.194,4.972a.767.767,0,0,1-.769.638Zm-42.391-6.933a.256.256,0,0,1-.17-.043.728.728,0,0,1-.555-.935l1.237-4.976a.771.771,0,0,1,1.493.382l-1.237,4.976a.808.808,0,0,1-.769.592Zm44.695-2.977h-.128a.807.807,0,0,1-.682-.893,23.356,23.356,0,0,0,.213-2.977c0-.638-.043-1.276-.086-1.914a.792.792,0,0,1,1.578-.127,16.992,16.992,0,0,1,.086,2.084,26.778,26.778,0,0,1-.213,3.19.782.782,0,0,1-.769.634Zm-42.264-6.933a.255.255,0,0,1-.17-.043.728.728,0,0,1-.554-.935l.256-1.106a20.729,20.729,0,0,1,1.322-3.87.772.772,0,0,1,1.407.638,21.283,21.283,0,0,0-1.237,3.615l-.256,1.106a.808.808,0,0,1-.769.592Zm41.325-3.147a.743.743,0,0,1-.725-.51,24.831,24.831,0,0,0-2.132-4.423.775.775,0,0,1,1.322-.806,21.386,21.386,0,0,1,2.3,4.764.775.775,0,0,1-.469.979Zm-37.188-6.082a.643.643,0,0,1-.469-.17.8.8,0,0,1-.128-1.106,22.056,22.056,0,0,1,3.71-3.744.788.788,0,1,1,.982,1.234,22.268,22.268,0,0,0-3.455,3.487.77.77,0,0,1-.642.295Zm31.687-2.424a.9.9,0,0,1-.554-.213,20.073,20.073,0,0,0-3.924-2.935.781.781,0,1,1,.768-1.361,23.646,23.646,0,0,1,4.222,3.147.8.8,0,0,1,.043,1.105.688.688,0,0,1-.556.251Zm-23.754-3.87a.781.781,0,0,1-.341-1.488,25.87,25.87,0,0,1,5.033-1.659.784.784,0,1,1,.341,1.531,22.4,22.4,0,0,0-4.691,1.532,1.34,1.34,0,0,1-.343.081Zm14.969-1.148a.386.386,0,0,1-.214-.043c-.341-.085-.639-.173-.982-.255a19.8,19.8,0,0,0-3.881-.51.787.787,0,0,1,.043-1.574,22.5,22.5,0,0,1,4.137.553,9.825,9.825,0,0,1,1.066.3.822.822,0,0,1,.554.979.781.781,0,0,1-.723.548Z" transform="translate(-35.617 -17.761)" fill="#2b2b2b"/>
            <path id="Caminho_3354" data-name="Caminho 3354" d="M200.645,204.968a.463.463,0,0,1-.213-.043l-4.947-1.276a.769.769,0,1,1,.384-1.488l4.947,1.276a.728.728,0,0,1,.554.935.693.693,0,0,1-.725.6Zm-9.934-2.509a.463.463,0,0,1-.213-.043l-.469-.128a16.342,16.342,0,0,1-4.435-1.872.774.774,0,1,1,.809-1.318,15.174,15.174,0,0,0,4.008,1.7l.469.127a.729.729,0,0,1,.554.936.669.669,0,0,1-.725.6Zm10.406-.255h-.128a.771.771,0,0,1-.64-.893l.853-5.019a.778.778,0,0,1,1.535.255l-.853,5.019a.775.775,0,0,1-.77.638Zm-18.978-4.976a.694.694,0,0,1-.6-.3,16.282,16.282,0,0,1-2.687-4.636.8.8,0,0,1,1.493-.553,14.076,14.076,0,0,0,2.43,4.168.841.841,0,0,1-.085,1.105.707.707,0,0,1-.557.213Zm20.641-5.062h-.128a.77.77,0,0,1-.639-.893l.853-5.018a.778.778,0,0,1,1.535.255l-.853,5.019a.782.782,0,0,1-.77.638Zm-24.138-4.3a.764.764,0,0,1-.768-.766v-.425a16.136,16.136,0,0,1,.512-4.04c.085-.255.128-.553.213-.806a.782.782,0,0,1,1.493.468c-.086.255-.128.468-.214.723a15.117,15.117,0,0,0-.469,3.658v.383a.83.83,0,0,1-.768.806Zm25.844-5.784h-.128a.771.771,0,0,1-.64-.893l.853-5.019a.778.778,0,0,1,1.535.255l-.853,5.019a.818.818,0,0,1-.77.638ZM181.627,178.3a.642.642,0,0,1-.469-.173.8.8,0,0,1-.173-1.106,15.854,15.854,0,0,1,3.838-3.7.8.8,0,1,1,.9,1.319,14.4,14.4,0,0,0-3.455,3.36.905.905,0,0,1-.639.3Zm23.541-5.487h-.043l-5.117-.382a.789.789,0,1,1,.128-1.574l5.117.382a.8.8,0,0,1,.725.851.9.9,0,0,1-.813.723Zm-15.268-.255a.819.819,0,0,1-.768-.553.788.788,0,0,1,.554-.979,15.76,15.76,0,0,1,4.435-.638h0a5.516,5.516,0,0,1,.853.042.767.767,0,1,1-.085,1.531h-.768a14.262,14.262,0,0,0-4.009.553.463.463,0,0,1-.215.041Z" transform="translate(-30.525 -29.241)" fill="#2b2b2b"/>
            <path id="Caminho_3355" data-name="Caminho 3355" d="M261.984,180.185a.789.789,0,0,1-.512-.213l-3.754-3.445a.783.783,0,1,1,1.066-1.148l3.754,3.445a.8.8,0,0,1,.043,1.106A.845.845,0,0,1,261.984,180.185Z" transform="translate(-44.184 -30.062)" fill="#2b2b2b"/>
            <path id="Caminho_3356" data-name="Caminho 3356" d="M188.137,242.892a.73.73,0,0,1-.725-.553l-1.621-4.848a.782.782,0,0,1,1.492-.468l1.621,4.848a.763.763,0,0,1-.512.979A.541.541,0,0,1,188.137,242.892Z" transform="translate(-31.878 -40.583)" fill="#2b2b2b"/>
          </g>
        </g>
      </g>
    </g>
    <g id="Grupo_3884" data-name="Grupo 3884" transform="translate(660.323 367.87)">
      <g id="Grupo_3883" data-name="Grupo 3883" transform="translate(0 0)">
        <g id="Layer_2-7" data-name="Layer 2">
          <g id="Layer_1-7" data-name="Layer 1">
            <path id="Caminho_3357" data-name="Caminho 3357" d="M155.178,94.352H86.327v5.032h68.851a2.509,2.509,0,0,0,2.492-2.516h0a2.506,2.506,0,0,0-.723-1.786A2.458,2.458,0,0,0,155.178,94.352Z" transform="translate(-14.815 -16.192)" fill="#f9d5ff"/>
            <path id="Caminho_3358" data-name="Caminho 3358" d="M154.74,101.074H85.889a2.081,2.081,0,0,1-1.5-.618,2.122,2.122,0,0,1-.612-1.514V93.91A2.122,2.122,0,0,1,84.39,92.4a2.082,2.082,0,0,1,1.5-.618H154.74a4.54,4.54,0,0,1,3.268,1.349,4.676,4.676,0,0,1-3.268,7.947ZM88,96.81H154.74a.41.41,0,0,0,.38-.383.384.384,0,0,0-.111-.272.377.377,0,0,0-.269-.112H88Z" transform="translate(-14.377 -15.75)" fill="#f9d5ff"/>
            <path id="Caminho_3359" data-name="Caminho 3359" d="M87.792,2.574H10.744A8.241,8.241,0,0,0,2.55,10.846V83.633H95.984V10.846a8.241,8.241,0,0,0-8.191-8.272Z" transform="translate(-0.437 -0.442)" fill="#fff"/>
            <path id="Caminho_3360" data-name="Caminho 3360" d="M95.546,85.324H2.112a2.081,2.081,0,0,1-1.5-.618A2.122,2.122,0,0,1,0,83.191V10.4A10.441,10.441,0,0,1,3.015,3.043,10.244,10.244,0,0,1,10.306,0H87.355a10.244,10.244,0,0,1,7.292,3.043A10.441,10.441,0,0,1,97.661,10.4V83.191a2.122,2.122,0,0,1-.613,1.515,2.081,2.081,0,0,1-1.5.617ZM4.224,81.059H93.435V10.4a6.141,6.141,0,0,0-6.08-6.14H10.306A6.14,6.14,0,0,0,4.224,10.4Z" transform="translate(0 0)" fill="#f9d5ff"/>
            <ellipse id="Elipse_805" data-name="Elipse 805" cx="8.279" cy="8.357" rx="8.279" ry="8.357" transform="translate(36.538 34.326)" fill="#fff"/>
            <path id="Caminho_3361" data-name="Caminho 3361" d="M52,59.639A10.234,10.234,0,1,1,62.138,49.406,10.186,10.186,0,0,1,52,59.639Zm0-16.715a6.482,6.482,0,1,0,6.42,6.481A6.451,6.451,0,0,0,52,42.924Z" transform="translate(-7.184 -6.722)" fill="#f9d5ff"/>
          </g>
        </g>
      </g>
    </g>
  </g>
</svg>
