<svg xmlns="http://www.w3.org/2000/svg" xmlns:xlink="http://www.w3.org/1999/xlink" width="137" height="137" viewBox="0 0 137 137">
  <defs>
    <filter id="Ret창ngulo_2816" x="0" y="0" width="137" height="137" filterUnits="userSpaceOnUse">
      <feOffset dy="10" input="SourceAlpha"/>
      <feGaussianBlur stdDeviation="10" result="blur"/>
      <feFlood flood-opacity="0.2"/>
      <feComposite operator="in" in2="blur"/>
      <feComposite in="SourceGraphic"/>
    </filter>
  </defs>
  <g id="Grupo_3850" data-name="Grupo 3850" transform="translate(29.998 20)">
    <g transform="matrix(1, 0, 0, 1, -30, -20)" filter="url(#Ret창ngulo_2816)">
      <rect id="Ret창ngulo_2816-2" data-name="Ret창ngulo 2816" width="77" height="77" rx="25" transform="translate(30 20)"/>
    </g>
    <path id="icons8_notification" d="M22.08,0a3.44,3.44,0,0,0-3.2,4.708c-4.843,1.258-7.991,5.465-7.991,10.789,0,6.743-1.655,9.814-3.229,11.542a13.694,13.694,0,0,1-2.233,1.883,5.225,5.225,0,0,0-.915.807A1.992,1.992,0,0,0,4,30.995a3.474,3.474,0,0,0,1.749,2.852,11.766,11.766,0,0,0,3.982,1.426,48.687,48.687,0,0,0,7.533.78,5.16,5.16,0,1,0,9.982,1.83,5.087,5.087,0,0,0-.35-1.83,48.688,48.688,0,0,0,7.533-.78,11.766,11.766,0,0,0,3.982-1.426,3.474,3.474,0,0,0,1.749-2.852,1.992,1.992,0,0,0-.511-1.265,5.228,5.228,0,0,0-.915-.807A13.693,13.693,0,0,1,36.5,27.04c-1.574-1.729-3.229-4.8-3.229-11.542A10.715,10.715,0,0,0,25.282,4.708,3.441,3.441,0,0,0,22.08,0Zm0,1.722a1.722,1.722,0,1,1-1.722,1.722A1.708,1.708,0,0,1,22.08,1.722ZM24.1,6.188c4.591.817,7.453,4.365,7.453,9.309,0,7.032,1.789,10.644,3.659,12.7a15.321,15.321,0,0,0,2.5,2.126,4.906,4.906,0,0,1,.646.538c.1.118.081.108.081.134,0,.538-.249.932-.969,1.4A10.37,10.37,0,0,1,34.08,33.6a64.558,64.558,0,0,1-12,.834,64.558,64.558,0,0,1-12-.834,10.371,10.371,0,0,1-3.39-1.211c-.72-.468-.969-.861-.969-1.4,0-.027-.024-.017.081-.134a4.9,4.9,0,0,1,.646-.538,15.324,15.324,0,0,0,2.5-2.126c1.87-2.055,3.659-5.667,3.659-12.7,0-4.94,2.865-8.462,7.453-9.282a3.383,3.383,0,0,0,2.018.673A3.347,3.347,0,0,0,24.1,6.188ZM19.121,36.107c.965.02,1.947.054,2.96.054s1.994-.034,2.96-.054a3.494,3.494,0,0,1,.484,1.776,3.444,3.444,0,1,1-6.4-1.776Z" transform="translate(16.922 17.476)" fill="#fff"/>
  </g>
</svg>
