<svg xmlns="http://www.w3.org/2000/svg" xmlns:xlink="http://www.w3.org/1999/xlink" width="137" height="137" viewBox="0 0 137 137">
  <defs>
    <filter id="Ret창ngulo_2816" x="0" y="0" width="137" height="137" filterUnits="userSpaceOnUse">
      <feOffset dy="10" input="SourceAlpha"/>
      <feGaussianBlur stdDeviation="10" result="blur"/>
      <feFlood flood-opacity="0.2"/>
      <feComposite operator="in" in2="blur"/>
      <feComposite in="SourceGraphic"/>
    </filter>
  </defs>
  <g id="Grupo_3850" data-name="Grupo 3850" transform="translate(29.998 20)">
    <g transform="matrix(1, 0, 0, 1, -30, -20)" filter="url(#Ret창ngulo_2816)">
      <rect id="Ret창ngulo_2816-2" data-name="Ret창ngulo 2816" width="77" height="77" rx="25" transform="translate(30 20)"/>
    </g>
    <path id="icons8-wallet" d="M32.412,3.031a10.664,10.664,0,0,0-2.522.435C27.03,4.22,10.581,8.772,10.581,8.772a.816.816,0,0,0-.087.029c-2.606.982-4.247,1.906-5.248,3.247a7.749,7.749,0,0,0-1.218,4.842V17.5c-.011.116-.029.232-.029.348V37.677A5.239,5.239,0,0,0,9.219,42.9H37.747a5.239,5.239,0,0,0,5.219-5.219V17.7A5.621,5.621,0,0,0,37.4,12.28H9.566a5.172,5.172,0,0,0-2.754.783c.674-.83,1.946-1.613,4.262-2.493.025-.011.033-.018.058-.029.105-.029,16.457-4.548,19.222-5.277a9.538,9.538,0,0,1,2.087-.377,1.388,1.388,0,0,1,.812.145c.109.08.2.236.29.609a7.63,7.63,0,0,1,.145,1.682v3.1h1.855v-3.1a8.967,8.967,0,0,0-.2-2.116,2.846,2.846,0,0,0-.986-1.653A3.093,3.093,0,0,0,32.412,3.031ZM9.566,14.135H37.4A3.966,3.966,0,0,1,41.11,17.7V37.677a3.356,3.356,0,0,1-3.363,3.363H9.219a3.352,3.352,0,0,1-3.363-3.363V19.209l.029-1.537A4.211,4.211,0,0,1,6.87,15.44,3.513,3.513,0,0,1,9.566,14.135ZM36.007,25.268a2.319,2.319,0,1,0,2.319,2.319A2.317,2.317,0,0,0,36.007,25.268Z" transform="translate(15.519 15.522)" fill="#fff"/>
  </g>
</svg>
