<svg xmlns="http://www.w3.org/2000/svg" xmlns:xlink="http://www.w3.org/1999/xlink" width="137" height="137" viewBox="0 0 137 137">
  <defs>
    <filter id="Ret창ngulo_2816" x="0" y="0" width="137" height="137" filterUnits="userSpaceOnUse">
      <feOffset dy="10" input="SourceAlpha"/>
      <feGaussianBlur stdDeviation="10" result="blur"/>
      <feFlood flood-opacity="0.2"/>
      <feComposite operator="in" in2="blur"/>
      <feComposite in="SourceGraphic"/>
    </filter>
  </defs>
  <g id="Grupo_3850" data-name="Grupo 3850" transform="translate(30.358 19.544)">
    <g transform="matrix(1, 0, 0, 1, -30.36, -19.54)" filter="url(#Ret창ngulo_2816)">
      <rect id="Ret창ngulo_2816-2" data-name="Ret창ngulo 2816" width="77" height="77" rx="25" transform="translate(30 20)"/>
    </g>
    <path id="icons8_mobile_payment" d="M15,3a3.015,3.015,0,0,0-3,3V8.832a1,1,0,0,0,0,.326V39.832a1,1,0,0,0,0,.326V44a3.015,3.015,0,0,0,3,3H35a3.015,3.015,0,0,0,3-3V40.168a1,1,0,0,0,0-.326V9.168a1,1,0,0,0,0-.326V6a3.015,3.015,0,0,0-3-3Zm0,2H35a1,1,0,0,1,1,1V8H14V6A1,1,0,0,1,15,5Zm-1,5H36V39H14Zm10,4v2.1a4.661,4.661,0,0,0-3.395,2.457A5.928,5.928,0,0,0,20,21a4.4,4.4,0,0,0,1.834,3.693,10.558,10.558,0,0,0,3.4,1.35,10.452,10.452,0,0,1,2.8,1.033A1.923,1.923,0,0,1,29,29a3.114,3.114,0,0,1-.473,1.471C28.061,31.217,27.233,32,25,32c-2.167,0-2.975-.936-3.48-1.947A5.29,5.29,0,0,1,21,28H19a7.173,7.173,0,0,0,.73,2.947A5.536,5.536,0,0,0,24,33.93V36h2V33.943a5.549,5.549,0,0,0,4.223-2.414A5.222,5.222,0,0,0,31,29a4.226,4.226,0,0,0-1.852-3.588,11.139,11.139,0,0,0-3.387-1.3,9.673,9.673,0,0,1-2.783-1.061A2.1,2.1,0,0,1,22,21a4.046,4.046,0,0,1,.395-1.553A2.471,2.471,0,0,1,25,18a2.471,2.471,0,0,1,2.605,1.447A4.046,4.046,0,0,1,28,21h2a5.928,5.928,0,0,0-.605-2.447A4.661,4.661,0,0,0,26,16.1V14ZM14,41H36v3a1,1,0,0,1-1,1H15a1,1,0,0,1-1-1Zm8,1a1,1,0,1,0,0,2h6a1,1,0,1,0,0-2Z" transform="translate(12.656 14.456)" fill="#fff"/>
  </g>
</svg>
