<svg xmlns="http://www.w3.org/2000/svg" xmlns:xlink="http://www.w3.org/1999/xlink" width="137" height="137" viewBox="0 0 137 137">
  <defs>
    <filter id="Ret창ngulo_2816" x="0" y="0" width="137" height="137" filterUnits="userSpaceOnUse">
      <feOffset dy="10" input="SourceAlpha"/>
      <feGaussianBlur stdDeviation="10" result="blur"/>
      <feFlood flood-opacity="0.2"/>
      <feComposite operator="in" in2="blur"/>
      <feComposite in="SourceGraphic"/>
    </filter>
  </defs>
  <g id="Grupo_3850" data-name="Grupo 3850" transform="translate(30.443 20.148)">
    <g transform="matrix(1, 0, 0, 1, -30.44, -20.15)" filter="url(#Ret창ngulo_2816)">
      <rect id="Ret창ngulo_2816-2" data-name="Ret창ngulo 2816" width="77" height="77" rx="25" transform="translate(30 20)"/>
    </g>
    <path id="icons8_copy" d="M15.27,0V4.822L16.878,6.43V1.607H28.933v9.644h9.644v20.9H26.522v1.607H40.185V10.122L30.063,0Zm15.27,2.738,6.907,6.907H30.541ZM0,6.43V40.185H24.915V16.551l-.226-.251L15.044,6.656l-.251-.226ZM1.607,8.037H13.663v9.644h9.644v20.9H1.607ZM15.27,9.192l6.882,6.882H15.27Z" transform="translate(18.464 18.76)" fill="#fff"/>
  </g>
</svg>
